<svg id="Capa_1" data-name="Capa 1" xmlns="http://www.w3.org/2000/svg" viewBox="0 0 1080 1080"><title>LOGO 2</title><path d="M495.26,409.46q-3.12-4.68-10.92-4.68c-3.65-.52-8.33,0-13.53,1a102.62,102.62,0,0,0-13.52,3.64c-4.68,1.56-8.32,2.6-12,3.64-4.68,1.56-6.24,2.08-7.28,3.12-7.8,5.2-15.6,10.92-21.85,17.68-5.2,5.73-10.4,11.45-15.08,17.69a4,4,0,0,1-1-1.56c-1.56-2.08-3.12-4.16-4.68-5.2a9,9,0,0,0-6.24-2.6,7.17,7.17,0,0,0-6.24,2.6c-2.6,2.6-5.2,6.76-7.28,13.52-2.08,5.72-3.64,12-5.72,18.72-1.56,6.76-3.64,14.56-4.68,21.84-1.56,7.81-2.6,14.57-3.64,21.33-1,6.24-1.56,12-2.08,16.12-.52,6.24-1,10.4,2.6,12.48.52.52,2.08,1,3.64,2.08,2.6,1,4.16,2.08,5.72,2.08,4.68,0,7.8-4.68,9.88-8.32s4.68-8.32,7.8-14.56c3.12-5.72,6.76-12.48,10.4-20.28,4.16-7.29,8.32-14.57,13-22.89,4.69-7.28,10.41-15.08,15.61-22.36a167.32,167.32,0,0,1,18.2-19.76,95.44,95.44,0,0,1,19.76-13.53,58.41,58.41,0,0,1,21.33-5.2,5.46,5.46,0,0,0,4.68-2.6C497.86,418.3,498.38,413.1,495.26,409.46Z" style="fill:#ba2b31"/><path d="M615.39,409.46q-3.12-4.68-10.92-4.68c-3.64-.52-8.32,0-13,1A102.62,102.62,0,0,0,578,409.46c-4.16,1.56-8.32,2.6-12,3.64-4.68,1.56-6.24,2.08-7.28,3.12a116,116,0,0,0-21.85,17.68c-5.2,5.73-10.4,11.45-15.08,17.69a4,4,0,0,1-1-1.56c-1.56-2.08-3.12-4.16-4.68-5.2a9,9,0,0,0-6.24-2.6,7.17,7.17,0,0,0-6.24,2.6c-2.6,2.6-5.2,6.76-7.28,13.52-2.08,5.72-3.64,12-5.72,18.72-1.56,7.28-3.64,14.56-4.68,21.84-1.56,7.81-2.61,14.57-3.65,21.33-1,6.24-1.56,12-2.08,16.12-.52,6.24-1,10.4,2.6,12.48a29.83,29.83,0,0,1,3.65,2.08c2.6,1,3.64,2.08,5.72,2.08,4.68,0,7.8-4.68,9.88-8.32s4.68-8.32,7.8-14.56c3.12-5.72,6.76-12.48,10.4-20.28,4.16-7.29,8.32-15.09,13-22.89,4.68-7.28,9.88-15.08,15.6-22.36a165.23,165.23,0,0,1,17.69-19.76,95.44,95.44,0,0,1,19.76-13.53,61.09,61.09,0,0,1,21.32-5.2c2.08,0,3.64-1,5.2-2.6C618,418.3,618.51,413.1,615.39,409.46Z" style="fill:#e3a330"/><path d="M644.52,442.23c-4.68,0-8.84,4.68-12,9.36-4.16,6.24-9.88,16.12-16.13,31.2-6.24,14.56-13,34.33-20.8,58.77a5.74,5.74,0,0,0,0,4.16c1.56,4.16,4.68,6.76,8.32,7.28,1,0,2.08.52,3.12.52a15.38,15.38,0,0,0,5.2-1c1-.52,2.6-1,3.12-2.6A411.4,411.4,0,0,0,639.32,501c5.72-14.56,9.36-25.48,11.44-34.84,2.6-10.92,2.08-16.64-1-20.28A5.17,5.17,0,0,0,644.52,442.23Z" style="fill:#552d5d"/><path d="M670,403.22a12.62,12.62,0,0,0-7.28-8.84q-5.46-2.34-14,0A9.33,9.33,0,0,0,645,397a7.73,7.73,0,0,0-1,4.68v6.76a8.85,8.85,0,0,0,.52,3.64c1.56,4.16,4.16,9.36,8.84,11.44a16.07,16.07,0,0,0,4.16,1,11,11,0,0,0,6.76-2.6,15.31,15.31,0,0,0,5.2-8.32C670.52,409.46,671,406.34,670,403.22Z" style="fill:#552d5d"/><path d="M812.5,422.46c-2.6-4.16-7.8-5.72-14-2.08A110.5,110.5,0,0,0,786,430.26a219.87,219.87,0,0,0-15.6,15.61c-5.72,5.72-11.44,12-17.69,18.72S740.21,478.11,734,484.35s-12,12.48-17.68,18.2a170.57,170.57,0,0,1-15.6,14.05c-3.64,2.6-6.24,5.2-8.84,6.24a113.1,113.1,0,0,1,.52-13.52l1.56-18.73,1.56-18.72a125.34,125.34,0,0,0,0-19.76,7.39,7.39,0,0,0-1-3.12c-1.56-2.08-3.12-3.64-4.16-5.2a12.28,12.28,0,0,0-4.68-3.12,8.91,8.91,0,0,0-8.85.52,9.33,9.33,0,0,0-2.6,3.64c-.52,2.6-1.56,6.24-2.6,11.44a122.93,122.93,0,0,0-3.64,17.16,192.2,192.2,0,0,0-3.64,19.76,139.59,139.59,0,0,0-1,20.29,88.17,88.17,0,0,0,3.12,18.2c2.08,6.24,5.72,10.92,10.92,13.52a27.13,27.13,0,0,0,15.09,4.68,11.45,11.45,0,0,0,4.16-.52,54.4,54.4,0,0,0,18.72-6.76,109.82,109.82,0,0,0,18.72-14c6.24-5.72,12-11.44,18.21-18.2,5.72-6.77,12-13.53,17.16-20.29,5.72-6.76,10.92-13.52,16.12-19.76q7-9.36,14-17.16c4.16-4.68,7.8-8.84,10.92-11.44a2.86,2.86,0,0,0,1.56-2.6C814.06,430.26,814.58,426.1,812.5,422.46Z" style="fill:#389742"/><path d="M1023.13,472.91c-1-2.6-4.68-7.28-15.6-4.68-1,0-1.56.52-2.6,1-5.2,4.16-10.4,7.28-14.56,10.4A127.39,127.39,0,0,1,975.29,489c-5.72,3.12-11.44,6.76-17.68,9.88-5.73,2.6-11.45,5.72-17.17,7.28a59.09,59.09,0,0,1-14.56,3.65c-3.64.52-6.24-.52-8.84-1.56-1.56-1-2.6-3.13-3.12-6.77a42.5,42.5,0,0,1,.52-14,127.62,127.62,0,0,1,4.16-15.08c2.08-5.2,3.64-10.4,5.72-15.08,2.08-5.72,4.16-10.92,5.2-16.12a44.79,44.79,0,0,0,0-16.65,37.49,37.49,0,0,0-7.8-16.64c-6.76-8.84-15.08-13.52-23.4-15.08s-17.17,0-26,4.16a80.77,80.77,0,0,0-24.44,17.16,170.26,170.26,0,0,0-21.84,25,206,206,0,0,0-17.69,29.12,164.09,164.09,0,0,0-11.44,29.64,80.36,80.36,0,0,0-3.12,26.53c.52,8.84,3.64,16.12,9.36,20.8A38.52,38.52,0,0,0,821.87,554c1.56,0,3.12.52,4.68.52a44.58,44.58,0,0,0,14-2.6,76.73,76.73,0,0,0,17.16-8.84c5.2-4.16,10.4-8.32,15.08-12.48s8.84-8.84,13-13l5.21-5.2a36.91,36.91,0,0,0,5.2,7.28c5.2,6.76,12,10.4,19.76,12.48a59,59,0,0,0,23.4,0,92.89,92.89,0,0,0,24.45-7.28,187.81,187.81,0,0,0,22.88-11.44c6.76-4.16,13.52-8.85,19.24-13A102.06,102.06,0,0,0,1019,488C1021.05,484.87,1025.74,479.15,1023.13,472.91ZM816.66,529.08c-1-3.12-.52-7.28.52-12.48A117.57,117.57,0,0,1,824,497.87a151.61,151.61,0,0,1,11.44-22.36c4.16-7.8,9.36-15.08,14.56-22.36a157,157,0,0,1,16.12-19.77,99.25,99.25,0,0,1,16.12-14.56c4.68-3.12,8.85-5.72,13-6.76a5.65,5.65,0,0,1,2.6-.52,3.13,3.13,0,0,1,2.08.52,65.36,65.36,0,0,1-1,22.36,110.87,110.87,0,0,1-7.8,25.49,158.75,158.75,0,0,1-13,24.44,175.8,175.8,0,0,1-16.12,21.32c-5.72,6.25-11.44,12-17.16,16.13s-10.4,7.28-15.08,9.36c-3.12,1-5.72,2.08-7.8,2.08H820.3C818.74,532.2,817.7,532.2,816.66,529.08Z" style="fill:#172953"/><path d="M352.76,585.25c-7.29-6.24-13-12.49-16.13-17.69a52.4,52.4,0,0,1-7.28-16.64,78.94,78.94,0,0,1-2.6-19.76c-.52-7.28-.52-16.12-1.56-26.53,0-1,0-3.64.52-12.48.52-7.28,1-16.12,1.56-26,.52-10.4,1.56-21.84,2.08-33.81.52-12.48,1-24.44,1.56-36.92.52-11.44.52-22.88,1-34.33,0-11.44,0-20.28-1-27.56-1-8.32-2.08-14-4.16-17.16a8,8,0,0,0-7.28-4.68c-5.2,0-8.32,5.2-9.36,7.28a553.09,553.09,0,0,0-25.48,49.4c-7.81,16.65-15.09,33.29-22.89,49.93-7.28,16.64-15.08,33.29-23.4,49.41a401.73,401.73,0,0,1-26.53,45.77,51.8,51.8,0,0,1-5.72,2.08c-3.64,1-7.8,1.56-11.44,2.6q-6.24,1.56-10.92,3.12c-5.2,2.08-8.32,4.68-9.36,8.32a5.05,5.05,0,0,0,.52,4.68,11.68,11.68,0,0,0,5.2,4.68c1.56,1.56,3.64,2.6,5.72,4.16l4.68,3.12a23.16,23.16,0,0,1-2.6,4.16c-2.6,4.16-6.24,8.84-10.4,14.56a211.66,211.66,0,0,1-15.08,17.69c-5.72,6.24-11.44,12.48-18.21,18.2C138,606.57,131.72,611.77,125,617a117.31,117.31,0,0,1-17.68,10.92,31.6,31.6,0,0,1-13,3.12h-1q-4.68,0-7.8-4.68a5.65,5.65,0,0,0-4.68-2.08c-6.25,0-8.85,3.64-9.37,6.76a10.71,10.71,0,0,0,1.56,7.8,21.53,21.53,0,0,0,3.64,5.73c1.56,1.56,2.61,3.12,4.17,3.64,6.76,4.68,14,7.28,21.32,7.28h2.6q11.7-.78,23.4-7.8A130.91,130.91,0,0,0,149.93,630a303.68,303.68,0,0,0,20.8-22.88c6.76-8.32,13.52-16.64,19.76-25S203,566,208.69,559.24a188.57,188.57,0,0,1,16.65-17.68c4.68-4.16,8.84-6.76,13-7.8l11.44-3.12c5.2-1.56,10.4-2.6,16.12-4.16s10.92-3.12,15.6-4.16c4.17-1,7.29-1.56,8.85-2.08h7.28a9.89,9.89,0,0,1,3.12,5.2c1.56,4.68,3.12,9.88,4.68,16.12s3.12,12.48,4.68,19.24a110.63,110.63,0,0,0,6.76,18.73c3.12,6.24,7.28,10.92,12.48,13.52,5.72,3.64,12.48,3.64,20.81,1a5.64,5.64,0,0,0,4.16-4.16C354.84,588.89,354.32,586.81,352.76,585.25ZM250.82,505.67l48.37-99.85v20.8c0,3.64-.52,7.8-.52,12.49s-.52,9.88-.52,15.08l-.52,15.6c0,5.2-.52,9.88-.52,14,0,3.64-.52,7.28-.52,12L293,499.43c-6.24,1-11.44,2.08-16.13,2.6a131.82,131.82,0,0,1-15.08,2.08C257.58,504.63,254.46,504.63,250.82,505.67Z" style="fill:#172953"/><path d="M530.1,619.57a22.73,22.73,0,0,1-4.16-3.64c-8.84-7.28-17.68-14-25.48-14.56-19.25-1.56-39-2.08-58.77-2.08-145.1,0-280.84,33.8-382.78,95.69h0a6.37,6.37,0,0,0-2.08,8.32,5.19,5.19,0,0,0,2.6,2.08c.52.52,1.56,1,2.6,2.08,9.36,8.33,19.77,16.13,28.09,16.13A10.48,10.48,0,0,0,95.84,722c98.81-60.33,232-93.1,374.45-93.1,19.25,0,39,1,58.25,2.08h.52c3.12,0,6.24-2.6,6.24-5.72C534.78,622.69,532.7,620.09,530.1,619.57Zm-440,98.3Z" style="fill:#172953"/><polygon points="373.04 753.75 361.6 753.75 361.6 694.46 373.04 694.46 373.04 718.39 392.28 718.39 392.28 694.46 403.72 694.46 403.72 753.75 392.28 753.75 392.28 729.31 373.04 729.31 373.04 753.75" style="fill:#172953"/><path d="M417.25,714.23a23.31,23.31,0,0,1,16.64-7.29,23.63,23.63,0,0,1,16.64,6.25,24.22,24.22,0,0,1,7.28,16.64c0,6.76-2.08,12.48-6.76,17.16a23.58,23.58,0,0,1-17.16,7.28c-6.76,0-12-2.6-16.64-7.28a25,25,0,0,1-6.77-16.64c0-5.72,2.6-11.44,6.77-16.12m16.64,30.16c7.8,0,12.48-5.2,12.48-14,0-7.8-5.2-13-12.48-13s-12.48,5.2-12.48,13c0,8.84,5.2,14,12.48,14" style="fill:#172953"/><path d="M470.81,739.19c0,4.16,2.6,6.76,5.2,6.76a4.91,4.91,0,0,0,5.2-5.2c0-2.6-1.56-4.16-4.68-5.72-4.16-2.08-7.28-2.6-8.32-3.64-3.12-2.6-4.68-5.72-4.68-10.4a13.43,13.43,0,0,1,13.52-13.53c7.81,0,13,4.69,13.53,13h-9.37V720c0-3.12-1.56-4.68-4.16-4.68a4.47,4.47,0,0,0-4.16,4.16c0,3.64,3.12,4.16,8.32,6.76,7.29,3.12,9.89,6.24,9.89,13.52,0,8.32-6.24,14.56-15.09,14.56-8.32,0-14.56-6.24-15.08-16.12l9.88,1Z" style="fill:#172953"/><path d="M507.74,768.31h-10.4V708.5h10.4v3.65c4.16-3.65,8.84-4.69,14-4.69a22.55,22.55,0,0,1,14.56,5.21c5.72,4.68,8.32,11.44,8.32,18.72,0,6.76-2.6,13-7.8,17.16a22,22,0,0,1-15.6,6.24,21.78,21.78,0,0,1-14-4.68v18.2Zm13.52-23.92c7.28,0,13-6.24,13-13.52s-5.72-13-13.52-13a12.77,12.77,0,0,0-12.48,13c0,7.8,5.72,13.52,13,13.52" style="fill:#172953"/><path d="M552,694.46h10.4v9.88H552Zm0,14h10.4v44.73H552Z" style="fill:#172953"/><polygon points="574.83 717.87 568.07 717.87 568.07 708.5 574.83 708.5 574.83 694.46 585.23 694.46 585.23 708.5 591.99 708.5 591.99 717.87 585.23 717.87 585.23 753.75 574.83 753.75 574.83 717.87" style="fill:#172953"/><path d="M632,748q-3.9,6.24-14,6.24a23,23,0,0,1-23.4-23.4,24.53,24.53,0,0,1,6.24-16.64,22,22,0,0,1,16.64-6.77c6.25,0,10.93,2.09,14,6.77V708.5h10.4v44.73H632Zm-14-4.16a12.66,12.66,0,0,0,12.49-12.48c0-7.28-5.72-13.52-12.49-13.52s-13,5.72-13,12.48c.52,8.32,6.24,13.52,13,13.52" style="fill:#172953"/><rect x="651.28" y="694.46" width="9.88" height="59.29" style="fill:#172953"/><path d="M670.52,694.46h10.4v9.88h-10.4Zm0,14h10.4v44.73h-10.4Z" style="fill:#172953"/><polygon points="693.41 717.87 686.64 717.87 686.64 708.5 693.41 708.5 693.41 694.46 703.81 694.46 703.81 708.5 710.57 708.5 710.57 717.87 703.81 717.87 703.81 753.75 693.41 753.75 693.41 717.87" style="fill:#172953"/><polygon points="721.49 708.5 732.41 739.71 744.37 708.5 755.29 708.5 730.85 768.31 720.45 768.31 726.69 752.19 710.57 708.5 721.49 708.5" style="fill:#172953"/><path d="M841.63,724.11a36.83,36.83,0,0,1-2.6,13.52c-5.72,11.44-15.6,17.68-27.57,17.68-8.84,0-16.64-3.64-22.88-10.4-5.2-5.72-7.8-13-7.8-21.32s3.12-15.61,9.36-21.85A29.79,29.79,0,0,1,812,692.9c12.49,0,22.37,6.24,27.57,18.73h-14c-3.64-4.17-8.33-6.77-14-6.77-10.4,0-18.2,8.33-18.2,18.73A18.64,18.64,0,0,0,812,742.31a18.14,18.14,0,0,0,16.65-10.92H805.22V722h36.93a3.13,3.13,0,0,0-.52,2.08" style="fill:#172953"/><path d="M858.79,730.35v22.88h-10.4V708.5h9.88v5.21A13.17,13.17,0,0,1,869.71,708v9.89c-8.84.52-10.92,4.68-10.92,12.48" style="fill:#172953"/><path d="M878,714.23a23.31,23.31,0,0,1,16.65-7.29,24.54,24.54,0,0,1,16.64,6.25,24.22,24.22,0,0,1,7.28,16.64c0,6.76-2.08,12.48-6.76,17.16a23.58,23.58,0,0,1-17.16,7.28A21.63,21.63,0,0,1,878,747a25,25,0,0,1-6.76-16.64A22.45,22.45,0,0,1,878,714.23m16.65,30.16c7.8,0,12.48-5.2,12.48-14,0-7.8-5.72-13-12.48-13-7.29,0-12.49,5.2-12.49,13,0,8.84,4.68,14,12.49,14" style="fill:#172953"/><path d="M954,748.55c-3.12,4.16-6.76,6.24-12,6.24-10.92,0-17.68-7.28-17.68-20.28v-26h10.4v20.29c0,10.92,1.56,16.12,9.36,16.12s9.88-5.72,9.88-16.64V708.5h10.41v44.73H954Z" style="fill:#172953"/><path d="M983.09,768.31h-10.4V708.5h10.4v3.65c4.16-3.65,8.84-4.69,14-4.69a22.55,22.55,0,0,1,14.56,5.21c5.72,4.68,8.32,11.44,8.32,18.72,0,6.76-2.6,13-7.8,17.16a21.17,21.17,0,0,1-15.6,6.24,21.78,21.78,0,0,1-14-4.68v18.2Zm13.52-23.92c7.28,0,13-6.24,13-13.52s-5.72-13-13.52-13a12.77,12.77,0,0,0-12.48,13c0,7.8,5.72,13.52,13,13.52" style="fill:#172953"/></svg>