<svg id="Capa_1" data-name="Capa 1" xmlns="http://www.w3.org/2000/svg" viewBox="0 0 300 300"><title>LOGO1</title><path d="M150,112.1c-.25.75.19.7.57.45a6.6,6.6,0,0,0,1.83-2.51,8.61,8.61,0,0,0,.19-6.18c-1.49-4.75-4-5.87-2.73-9.68.27-.8-.13-.85-.35-.54s-3.85,4.81-2.14,9.35C149,107.32,151.43,107.69,150,112.1Z" style="fill:#b5a160"/><path d="M145.15,113.41c.16.77.52.51.72.1a6.63,6.63,0,0,0,.33-3.09,8.59,8.59,0,0,0-2.93-5.45c-3.66-3.36-6.42-3.07-7.2-7-.16-.83-.54-.66-.57-.29-.06.53-.93,6.09,2.82,9.17C141.89,109.76,144.2,108.86,145.15,113.41Z" style="fill:#b5a160"/><path d="M141.62,117c.53.59.7.18.67-.27a6.49,6.49,0,0,0-1.25-2.84,8.58,8.58,0,0,0-5.27-3.25c-4.85-1.08-7.09.55-9.74-2.48-.56-.64-.8-.31-.64,0s2.25,5.74,7,6.53C137,115.42,138.53,113.49,141.62,117Z" style="fill:#b5a160"/><path d="M140.34,121.79c.75.25.7-.2.44-.57a6.42,6.42,0,0,0-2.5-1.84,8.58,8.58,0,0,0-6.19-.18c-4.74,1.49-5.87,4-9.68,2.72-.8-.27-.84.14-.54.35s4.82,3.85,9.36,2.14C135.55,122.78,135.92,120.33,140.34,121.79Z" style="fill:#b5a160"/><path d="M141.64,126.62c.78-.17.51-.52.1-.72a6.58,6.58,0,0,0-3.08-.34,8.62,8.62,0,0,0-5.45,2.94c-3.37,3.66-3.07,6.42-7,7.2-.83.16-.66.53-.3.57.53,0,6.1.92,9.17-2.83C138,129.87,137.09,127.56,141.64,126.62Z" style="fill:#b5a160"/><path d="M145.19,130.14c.59-.52.18-.7-.27-.67a6.51,6.51,0,0,0-2.84,1.26,8.58,8.58,0,0,0-3.26,5.26c-1.08,4.85.56,7.1-2.48,9.74-.63.56-.3.8,0,.65s5.74-2.25,6.53-7C143.66,134.78,141.72,133.24,145.19,130.14Z" style="fill:#b5a160"/><path d="M150,131.43c.25-.76-.19-.7-.57-.45a6.53,6.53,0,0,0-1.83,2.51,8.61,8.61,0,0,0-.19,6.18c1.49,4.75,4,5.87,2.73,9.68-.27.8.13.84.35.54s3.85-4.82,2.14-9.35C151,136.21,148.57,135.84,150,131.43Z" style="fill:#b5a160"/><path d="M154.85,130.12c-.16-.78-.52-.51-.72-.1a6.61,6.61,0,0,0-.33,3.09,8.54,8.54,0,0,0,2.93,5.44c3.66,3.37,6.42,3.07,7.2,7,.16.82.54.66.57.29.06-.53.93-6.1-2.82-9.17C158.11,133.77,155.8,134.67,154.85,130.12Z" style="fill:#b5a160"/><path d="M158.38,126.58c-.53-.6-.7-.19-.67.27a6.49,6.49,0,0,0,1.25,2.84,8.62,8.62,0,0,0,5.27,3.25c4.85,1.08,7.09-.55,9.74,2.48.56.64.8.31.64,0s-2.25-5.74-7-6.53C163,128.11,161.47,130,158.38,126.58Z" style="fill:#b5a160"/><path d="M159.66,121.74c-.75-.25-.7.19-.44.57a6.49,6.49,0,0,0,2.5,1.83,8.58,8.58,0,0,0,6.19.19c4.74-1.49,5.87-4,9.68-2.73.8.28.84-.13.54-.34s-4.82-3.85-9.36-2.14C164.45,120.75,164.08,123.2,159.66,121.74Z" style="fill:#b5a160"/><path d="M158.36,116.91c-.78.16-.51.52-.1.72a6.45,6.45,0,0,0,3.08.33,8.56,8.56,0,0,0,5.45-2.93c3.37-3.66,3.07-6.42,7-7.2.83-.16.66-.53.3-.57-.53-.05-6.1-.92-9.17,2.82C162,113.66,162.91,116,158.36,116.91Z" style="fill:#b5a160"/><path d="M154.81,113.38c-.59.53-.18.71.27.68a6.63,6.63,0,0,0,2.84-1.26,8.64,8.64,0,0,0,3.26-5.26c1.08-4.86-.56-7.1,2.48-9.75.63-.55.3-.79,0-.64s-5.74,2.25-6.53,7C156.34,108.74,158.28,110.29,154.81,113.38Z" style="fill:#b5a160"/><path d="M43.8,173.77a6.74,6.74,0,0,0-3.52-1.89A5.61,5.61,0,0,0,42.76,170a5.49,5.49,0,0,0,1-3.27c0-3.76-3-5.67-9-5.67a31.61,31.61,0,0,0-5.48.4l-.12,0V183.9l.12,0a46.62,46.62,0,0,0,6.13.43,13,13,0,0,0,7.14-1.72,5.72,5.72,0,0,0,2.66-5.07,5.39,5.39,0,0,0-1.41-3.79Zm-10.46-.6h1.71a7.12,7.12,0,0,1,4.32,1.13,4,4,0,0,1,1.48,3.37,4,4,0,0,1-1.52,3.43,6.61,6.61,0,0,1-4.1,1.17,10.32,10.32,0,0,1-1.89-.16Zm1.46-2H33.34v-8a14.55,14.55,0,0,1,1.5-.09c3.17,0,4.71,1.26,4.71,3.88C39.55,169.76,38,171.13,34.8,171.13Zm23.83-9.77H55.69l-9,22.67H50l2.25-6.34h8l2.1,6.34H67l-8.32-22.59Zm.84,14.14H53L56.32,166Zm26.07-14.14h4.25V184H85.54V173.46H74.42V184H70.16V161.36h4.26v9.77H85.54Zm9.92,0h4.25V184H95.46Zm19.29,0h-2.94l-9,22.67h3.26l2.24-6.34h8l2.1,6.34h4.67l-8.32-22.59Zm.84,14.14h-6.5l3.35-9.46Zm32.63-12.69a12.93,12.93,0,0,0-7.33-1.78,30,30,0,0,0-5.46.4l-.11,0V184h4.25V176c.88,0,1.48.07,1.79.07a12.35,12.35,0,0,0,4.95-.93,7.68,7.68,0,0,0,3.34-2.69,7.27,7.27,0,0,0,1.18-4.12A6.23,6.23,0,0,0,148.22,162.81Zm-8.65.36a11.53,11.53,0,0,1,1.24-.09,5.93,5.93,0,0,1,4.29,1.35,5.17,5.17,0,0,1,1.37,3.83,5.81,5.81,0,0,1-1.4,4.12,5.61,5.61,0,0,1-4.29,1.5,9.24,9.24,0,0,1-1.21-.06Zm28.36,8.59a6.4,6.4,0,0,0-1.21-9c-1.66-1.14-4.12-1.72-7.29-1.72-.77,0-1.7,0-2.78.11a25.2,25.2,0,0,0-2.64.29l-.11,0V184h4.22v-9.19c.89,0,1.57.07,2,.07h.29l5.43,9.12h4.92l-6.27-9.88A7.87,7.87,0,0,0,167.93,171.76Zm-3-3.94a4.86,4.86,0,0,1-1.39,3.62,5.9,5.9,0,0,1-4.23,1.35,7.65,7.65,0,0,1-1.16-.09v-9.53c.66-.06,1.21-.09,1.64-.09a5.43,5.43,0,0,1,3.9,1.22A4.78,4.78,0,0,1,164.9,167.82Zm9.31-6.46h4.25V184h-4.25Zm25.5,0h2.81V184h-2.33l-.05-.05-13.32-15.75V184h-2.77V161.36h2.33l0,0,13.29,15.93Zm24.55,18.89,1.19,2-.1.07a10.17,10.17,0,0,1-3.3,1.67,13.08,13.08,0,0,1-3.84.57,12.54,12.54,0,0,1-6.05-1.41,9.69,9.69,0,0,1-4-4,13,13,0,0,1-1.39-6.16,12.65,12.65,0,0,1,1.57-6.31,11.19,11.19,0,0,1,4.36-4.3,12.75,12.75,0,0,1,6.25-1.54,11.64,11.64,0,0,1,6.26,1.65l.11.07-1.29,2.31-.13-.09a8,8,0,0,0-4.73-1.49,7.18,7.18,0,0,0-4.25,1.24,7.69,7.69,0,0,0-2.64,3.34,11.85,11.85,0,0,0-.9,4.69,13.11,13.11,0,0,0,.84,4.8,7.64,7.64,0,0,0,2.53,3.39A6.67,6.67,0,0,0,218.9,182a8.38,8.38,0,0,0,5.24-1.64Zm4.24-18.89h4.25V184H228.5Zm22.81,1.45c-1.71-1.18-4.18-1.78-7.33-1.78a29.93,29.93,0,0,0-5.45.4l-.11,0V184h4.25V176c.88,0,1.48.07,1.78.07a12.4,12.4,0,0,0,5-.93,7.59,7.59,0,0,0,3.33-2.69,7.27,7.27,0,0,0,1.18-4.12A6.23,6.23,0,0,0,251.31,162.81Zm-8.64.36a11.19,11.19,0,0,1,1.24-.09,5.91,5.91,0,0,1,4.28,1.35,5.17,5.17,0,0,1,1.37,3.83,5.85,5.85,0,0,1-1.39,4.12,5.64,5.64,0,0,1-4.3,1.5,9.07,9.07,0,0,1-1.2-.06Zm28.17,18.14V184H257V161.36h13.66V164h-.15c-2-.2-4.24-.29-6.61-.29h-2.72v7.69h.94c2.57,0,4.79-.07,6.58-.19h.15v2.67h-.15c-1.8-.12-4-.18-6.58-.18h-.94v7.95h2.9a59.67,59.67,0,0,0,6.61-.33ZM64.16,202.17v4.17H62.42v-9.9h1.74v4.11h4.73v-4.11h1.74v9.9H68.89v-4.17Zm15.75,4.34a5.12,5.12,0,1,1,5.19-5.14A5,5,0,0,1,79.91,206.51Zm0-8.65a3.35,3.35,0,0,0-3.34,3.51,3.4,3.4,0,0,0,3.37,3.54,3.35,3.35,0,0,0,3.34-3.51A3.4,3.4,0,0,0,79.91,197.86Zm13,8.48H91.13v-8.29H88v-1.61h8v1.61H92.89ZM107,198h-5.6v2.58h5v1.55h-5v2.66h5.67v1.56H99.69v-9.9H107Zm4.2-1.55H113v8.31h5.2v1.59h-6.94ZM126,200.59c2.09.51,3.18,1.26,3.18,2.92,0,1.87-1.46,3-3.54,3a6.11,6.11,0,0,1-4.13-1.58l1-1.25a4.56,4.56,0,0,0,3.12,1.29c1.08,0,1.76-.5,1.76-1.26s-.4-1.1-2.24-1.53c-2.1-.51-3.29-1.13-3.29-3s1.41-2.89,3.38-2.89a5.46,5.46,0,0,1,3.59,1.25l-.93,1.31a4.51,4.51,0,0,0-2.69-1c-1,0-1.61.52-1.61,1.18S124.1,200.14,126,200.59Zm20.58,5.95-1.32-1.35a4.31,4.31,0,0,1-3,1.29c-1.84,0-3.22-1.1-3.22-2.84a3,3,0,0,1,2.1-2.79,3.28,3.28,0,0,1-.82-2.08,2.6,2.6,0,0,1,2.85-2.5,2.43,2.43,0,0,1,2.63,2.4c0,1.32-.86,2.09-2.18,2.59l1.7,1.73a15.61,15.61,0,0,0,1.06-1.91l1.31.69a15,15,0,0,1-1.34,2.26l1.56,1.59Zm-4.51-4.62a1.85,1.85,0,0,0-1.32,1.66,1.51,1.51,0,0,0,1.66,1.46,2.7,2.7,0,0,0,1.86-.87Zm1-4.28a1.13,1.13,0,0,0-1.18,1.2,2.12,2.12,0,0,0,.75,1.49c1-.37,1.56-.82,1.56-1.56A1.07,1.07,0,0,0,143.09,197.64Zm21.31,8.7L162,202.89h-2.18v3.45h-1.74v-9.9h4.42c2.27,0,3.67,1.2,3.67,3.14a3,3,0,0,1-2.36,3l2.68,3.75ZM162.33,198h-2.54v3.32h2.55c1.24,0,2-.65,2-1.66S163.61,198,162.33,198Zm15.32,0h-5.6v2.58h5v1.55h-5v2.66h5.67v1.56h-7.41v-9.9h7.34Zm8,2.6c2.1.51,3.19,1.26,3.19,2.92,0,1.87-1.46,3-3.54,3a6.11,6.11,0,0,1-4.13-1.58l1-1.25a4.54,4.54,0,0,0,3.12,1.29c1.08,0,1.76-.5,1.76-1.26s-.4-1.1-2.24-1.53c-2.11-.51-3.3-1.13-3.3-3s1.42-2.89,3.39-2.89a5.46,5.46,0,0,1,3.59,1.25l-.93,1.31a4.55,4.55,0,0,0-2.69-1c-1,0-1.62.52-1.62,1.18S183.77,200.14,185.66,200.59Zm11.79,5.92a5.12,5.12,0,1,1,5.19-5.14A5,5,0,0,1,197.45,206.51Zm0-8.65a3.35,3.35,0,0,0-3.34,3.51,3.4,3.4,0,0,0,3.37,3.54,3.35,3.35,0,0,0,3.34-3.51A3.4,3.4,0,0,0,197.45,197.86Zm15.67,8.48-2.43-3.45h-2.18v3.45h-1.74v-9.9h4.41c2.28,0,3.68,1.2,3.68,3.14a3,3,0,0,1-2.36,3l2.67,3.75ZM211,198h-2.53v3.32h2.55c1.24,0,2-.65,2-1.66S212.33,198,211,198Zm12,8.32h-1.75v-8.29h-3.14v-1.61h8v1.61h-3.14Zm10.68-5.75c2.09.51,3.18,1.26,3.18,2.92,0,1.87-1.46,3-3.54,3a6.11,6.11,0,0,1-4.13-1.58l1.05-1.25a4.58,4.58,0,0,0,3.13,1.29c1.07,0,1.75-.5,1.75-1.26s-.4-1.1-2.23-1.53c-2.11-.51-3.3-1.13-3.3-3s1.41-2.89,3.38-2.89a5.46,5.46,0,0,1,3.59,1.25l-.93,1.31a4.51,4.51,0,0,0-2.69-1c-1,0-1.61.52-1.61,1.18S231.85,200.14,233.75,200.59Z" style="fill:#0056a4"/></svg>