<svg id="Capa_1" data-name="Capa 1" xmlns="http://www.w3.org/2000/svg" viewBox="0 0 300 300"><title>LOGO1</title><path d="M177.81,98.13a3.18,3.18,0,1,1-3.18,3.18,3.18,3.18,0,0,1,3.18-3.18" style="fill:#5b89b4"/><path d="M155.43,112a5.3,5.3,0,1,1-5.3-5.3,5.3,5.3,0,0,1,5.3,5.3" style="fill:#5b89b4"/><path d="M160.59,108.83a3.18,3.18,0,1,1-3.18,3.18,3.18,3.18,0,0,1,3.18-3.18" style="fill:#5b89b4"/><path d="M139.41,108.83a3.18,3.18,0,1,1-3.18,3.18,3.18,3.18,0,0,1,3.18-3.18" style="fill:#5b89b4"/><path d="M123,98.13a3.18,3.18,0,1,1-3.19,3.18A3.18,3.18,0,0,1,123,98.13" style="fill:#5b89b4"/><path d="M150.13,98.13a3.18,3.18,0,1,1-3.18,3.18,3.18,3.18,0,0,1,3.18-3.18" style="fill:#5b89b4"/><path d="M140,102.48a1.65,1.65,0,1,1,2.33,0,1.65,1.65,0,0,1-2.33,0" style="fill:#5b89b4"/><path d="M130.81,102.48a1.65,1.65,0,1,1,2.34,0,1.65,1.65,0,0,1-2.34,0" style="fill:#5b89b4"/><path d="M158.32,100.15a1.65,1.65,0,1,1,2.33,2.33,1.65,1.65,0,0,1-2.33,0,1.64,1.64,0,0,1,0-2.33" style="fill:#5b89b4"/><path d="M167.48,100.15a1.65,1.65,0,0,1,2.34,2.33,1.65,1.65,0,1,1-2.34-2.33" style="fill:#5b89b4"/><path d="M150.13,120.91a3.18,3.18,0,1,1-3.18,3.18,3.18,3.18,0,0,1,3.18-3.18" style="fill:#5b89b4"/><path d="M140,123.72a1.65,1.65,0,1,1,2.33,0,1.64,1.64,0,0,1-2.33,0" style="fill:#5b89b4"/><path d="M130.81,123.72a1.65,1.65,0,1,1,2.34,0,1.65,1.65,0,0,1-2.34,0" style="fill:#5b89b4"/><path d="M158.32,121.39a1.65,1.65,0,0,1,2.33,0,1.65,1.65,0,1,1-2.33,0" style="fill:#5b89b4"/><path d="M167.48,121.39a1.65,1.65,0,0,1,2.34,2.33,1.65,1.65,0,1,1-2.34-2.33" style="fill:#5b89b4"/><path d="M171.18,114.48a2.48,2.48,0,1,1,2.48-2.47,2.47,2.47,0,0,1-2.48,2.47" style="fill:#003e52"/><path d="M128.82,114.48a2.48,2.48,0,1,1,2.47-2.47,2.48,2.48,0,0,1-2.47,2.47" style="fill:#003e52"/><path d="M147.66,133.58a2.48,2.48,0,1,1,2.47,2.48,2.48,2.48,0,0,1-2.47-2.48" style="fill:#003e52"/><path d="M181.77,113.33A1.33,1.33,0,1,1,183.1,112a1.32,1.32,0,0,1-1.33,1.32" style="fill:#003e52"/><path d="M118.23,113.33a1.33,1.33,0,1,1,1.32-1.32,1.33,1.33,0,0,1-1.32,1.32" style="fill:#003e52"/><path d="M148.81,142.07a1.33,1.33,0,1,1,1.32,1.32,1.32,1.32,0,0,1-1.32-1.32" style="fill:#003e52"/><path d="M140,134.75a1.65,1.65,0,1,1,2.33,0,1.67,1.67,0,0,1-2.33,0" style="fill:#003e52"/><path d="M158.32,132.42a1.65,1.65,0,1,1,2.33,2.33,1.65,1.65,0,0,1-2.33,0,1.64,1.64,0,0,1,0-2.33" style="fill:#003e52"/><path d="M43.5,175.94a6.54,6.54,0,0,1-1.8,2.14,9.2,9.2,0,0,1-2.62,1.38,19.41,19.41,0,0,1-3.09.78,29.21,29.21,0,0,1-3.23.33c-1.08.05-2.09.07-3,.07H22.06v-26.8h7.81q6.6,0,9.64,1.83a5.61,5.61,0,0,1,3,5,5.88,5.88,0,0,1-1,3.41,6.56,6.56,0,0,1-3.13,2.31,9.59,9.59,0,0,1,4.19,2.39,5.67,5.67,0,0,1,1.57,4.15,6.36,6.36,0,0,1-.67,3M40,160.58A3.25,3.25,0,0,0,39.6,159a3.77,3.77,0,0,0-1.59-1.4,11.63,11.63,0,0,0-3.15-1,27.38,27.38,0,0,0-5.1-.39H24.57v9.11h5.22a26.22,26.22,0,0,0,5.55-.46,8.81,8.81,0,0,0,3.07-1.17,3.18,3.18,0,0,0,1.31-1.53,4.92,4.92,0,0,0,.28-1.61Zm1,10.28a4.8,4.8,0,0,0-1.94-1.64,13.11,13.11,0,0,0-3.51-1.1,29.64,29.64,0,0,0-5.32-.41H24.57v10.53h5.15c1.56,0,3.05-.06,4.49-.19a15.63,15.63,0,0,0,3.81-.78,6.53,6.53,0,0,0,2.65-1.63,4.06,4.06,0,0,0,.39-4.78" style="fill:#003e52"/><rect x="50" y="153.2" width="2.44" height="27.44" style="fill:#003e52"/><path d="M75.46,180.64s0-.21,0-.49,0-.66,0-1.12,0-.85.06-1.18c-.71.47-1.38.88-2,1.24a15.36,15.36,0,0,1-2,.92,14,14,0,0,1-5.16,1.06,7.57,7.57,0,0,1-5.69-2,5.84,5.84,0,0,1-1.3-2.06,7.88,7.88,0,0,1-.43-2.78V160.09h2.44v14.09a7.3,7.3,0,0,0,.21,1.85,3,3,0,0,0,.85,1.4,4.84,4.84,0,0,0,1.38.88,6.44,6.44,0,0,0,2.61.42,9.85,9.85,0,0,0,2.07-.23,11.66,11.66,0,0,0,2.27-.72c.62-.26,1.33-.61,2.16-1.06a21.39,21.39,0,0,0,2.47-1.59v-15h2.47v20.55Z" style="fill:#003e52"/><path d="M85.35,171.11a8.32,8.32,0,0,0,1,3.58,7.43,7.43,0,0,0,2.05,2.37A8,8,0,0,0,91,178.35a10.63,10.63,0,0,0,2.81.39,18.72,18.72,0,0,0,3.09-.27q1.6-.27,3-.6c1-.22,1.79-.45,2.51-.67s1.21-.38,1.47-.48l.17,2.33c-1.41.43-2.63.76-3.67,1s-2.15.48-3.34.69a18.58,18.58,0,0,1-3.19.32,13.4,13.4,0,0,1-4.24-.69A9.68,9.68,0,0,1,86,178.13a9.9,9.9,0,0,1-2.24-3.35,11.86,11.86,0,0,1-.83-4.66,10.73,10.73,0,0,1,.86-4.38,9.42,9.42,0,0,1,2.46-3.32,11.29,11.29,0,0,1,7.7-2.76,10.3,10.3,0,0,1,4.08.83,10.55,10.55,0,0,1,3.44,2.42,10.89,10.89,0,0,1,2,3.32,13.15,13.15,0,0,1,.8,4.88Zm16.28-2.23a8.62,8.62,0,0,0-.85-2.6,7.9,7.9,0,0,0-1.64-2.2,7.82,7.82,0,0,0-2.33-1.52A7.26,7.26,0,0,0,93.9,162a9.78,9.78,0,0,0-3.31.55A8.57,8.57,0,0,0,88,164a7.73,7.73,0,0,0-1.78,2.19,6.83,6.83,0,0,0-.81,2.62h16.24Z" style="fill:#003e52"/><path d="M131.74,172.77A10.91,10.91,0,0,1,128.9,177a13.24,13.24,0,0,1-4.75,2.7,21.18,21.18,0,0,1-6.66.95h-8.83v-26.8h8.83a20.9,20.9,0,0,1,6.66.95,13,13,0,0,1,4.75,2.7,10.83,10.83,0,0,1,2.84,4.24,16.68,16.68,0,0,1,0,11m-2.28-10a8.74,8.74,0,0,0-2.24-3.5A10.22,10.22,0,0,0,123.3,157a18.25,18.25,0,0,0-5.74-.79h-6.39v22h6.39a18.25,18.25,0,0,0,5.74-.79,10.35,10.35,0,0,0,3.92-2.26,8.81,8.81,0,0,0,2.24-3.48,14.36,14.36,0,0,0,0-8.92" style="fill:#5b89b4"/><path d="M137.9,157.79V153.2h2.44v4.56Zm0,2.3h2.44v20.55H137.9Z" style="fill:#5b89b4"/><path d="M162.77,180.64a6.52,6.52,0,0,1-.8-1.06,9,9,0,0,1-.44-.88,8.81,8.81,0,0,1-1.89,1.16,12.84,12.84,0,0,1-3.87,1.1,13.23,13.23,0,0,1-1.55.11,15,15,0,0,1-4.22-.52,8,8,0,0,1-2.77-1.36,4.81,4.81,0,0,1-1.52-1.94,5.71,5.71,0,0,1-.46-2.26,5.82,5.82,0,0,1,1.11-3.64,7.89,7.89,0,0,1,3.2-2.35,22.36,22.36,0,0,1,5.05-1.41q3-.51,6.67-.83v-.1a6.93,6.93,0,0,0-.26-2,3,3,0,0,0-1-1.44,4.78,4.78,0,0,0-1.91-.89,12.81,12.81,0,0,0-3-.3,14.65,14.65,0,0,0-4.2.6,4.65,4.65,0,0,0-.56.22l-.25-2.51.7-.18c.43-.09,1-.19,1.84-.3a20.24,20.24,0,0,1,2.51-.16c3,0,5.13.58,6.5,1.73a6.32,6.32,0,0,1,2.05,5.09v9.89c0,.42,0,.76,0,1a2.73,2.73,0,0,0,.14.68,1.83,1.83,0,0,0,.34.58c.15.19.36.43.62.74l1.09,1.27Zm-1.49-11.51q-3.63.31-6.21.78a20.53,20.53,0,0,0-4.22,1.13,5.61,5.61,0,0,0-2.4,1.62,3.56,3.56,0,0,0-.76,2.3,3.45,3.45,0,0,0,.23,1.18,2.82,2.82,0,0,0,.93,1.23,5.73,5.73,0,0,0,2,1,12.33,12.33,0,0,0,3.44.38,12.13,12.13,0,0,0,1.43-.1,9.16,9.16,0,0,0,1.84-.43,9.39,9.39,0,0,0,1.92-.88,7.19,7.19,0,0,0,1.77-1.48Z" style="fill:#5b89b4"/><path d="M198.19,180.64V165.81a6.45,6.45,0,0,0-.16-1.5,2.82,2.82,0,0,0-.65-1.26,3.3,3.3,0,0,0-1.11-.74,5.15,5.15,0,0,0-2-.32,8.52,8.52,0,0,0-3.39.82,14.11,14.11,0,0,0-2,1,15.8,15.8,0,0,0-2.19,1.59v15.22h-2.44V165.35a4,4,0,0,0-.23-1.45,2.48,2.48,0,0,0-.72-1,3.92,3.92,0,0,0-1.19-.67,5.19,5.19,0,0,0-1.71-.25,7.92,7.92,0,0,0-1.62.2,10.13,10.13,0,0,0-2,.65,13.5,13.5,0,0,0-2,1,15.84,15.84,0,0,0-2.06,1.57v15.19h-2.47V160.09h2.47l0,2.5a21.74,21.74,0,0,1,1.89-1.21,15,15,0,0,1,1.75-.87,11.2,11.2,0,0,1,2.14-.65,10.11,10.11,0,0,1,1.92-.2,7.76,7.76,0,0,1,2.44.37,6.68,6.68,0,0,1,1.91,1,4.31,4.31,0,0,1,.84.87,5.53,5.53,0,0,1,.6,1,17.18,17.18,0,0,1,3.92-2.33,11.22,11.22,0,0,1,4.21-.89,7.57,7.57,0,0,1,2.82.48,5.81,5.81,0,0,1,2,1.32,5.21,5.21,0,0,1,1.13,1.89,7.45,7.45,0,0,1,.35,2.28v15Z" style="fill:#5b89b4"/><path d="M227.63,174.34a9.61,9.61,0,0,1-2.09,3.41,10.53,10.53,0,0,1-3.54,2.4,13.08,13.08,0,0,1-5.12.92,13.36,13.36,0,0,1-5-.87,10.1,10.1,0,0,1-3.58-2.35,9.74,9.74,0,0,1-2.16-3.42,11.63,11.63,0,0,1-.72-4.07,10.9,10.9,0,0,1,.9-4.53,9.6,9.6,0,0,1,2.47-3.36,10.9,10.9,0,0,1,3.66-2.08,13.93,13.93,0,0,1,8.9,0,10.64,10.64,0,0,1,3.63,2.1,9.83,9.83,0,0,1,2.46,3.37,10.92,10.92,0,0,1,.9,4.54,11.64,11.64,0,0,1-.69,3.94m-1.75-3.94a8.54,8.54,0,0,0-.69-3.5,7.91,7.91,0,0,0-1.89-2.65,8.12,8.12,0,0,0-2.84-1.66,11.15,11.15,0,0,0-3.58-.56,11.34,11.34,0,0,0-3.61.56,8,8,0,0,0-2.86,1.66,7.91,7.91,0,0,0-1.89,2.65,8.54,8.54,0,0,0-.69,3.5,9.31,9.31,0,0,0,.55,3.14,7.64,7.64,0,0,0,1.66,2.69,8,8,0,0,0,2.83,1.85,10.78,10.78,0,0,0,4,.69,10.46,10.46,0,0,0,4-.69,7.52,7.52,0,0,0,4.43-4.52,9.25,9.25,0,0,0,.55-3.16Z" style="fill:#5b89b4"/><path d="M249.76,180.64V166.55a6.93,6.93,0,0,0-.22-1.82,3.06,3.06,0,0,0-.81-1.43,5.09,5.09,0,0,0-1.46-.9,6.61,6.61,0,0,0-2.56-.41,13.2,13.2,0,0,0-4.35.89,7.59,7.59,0,0,0-1.15.49q-.61.31-1.23.69c-.42.25-.81.51-1.2.78s-.74.52-1.05.76v15h-2.47V160.09h2.47s0,.21,0,.49,0,.65,0,1.1,0,.83-.05,1.16a19.53,19.53,0,0,1,4-2.15,13.92,13.92,0,0,1,5.16-1,7.5,7.5,0,0,1,5.68,2,5.87,5.87,0,0,1,1.31,2.06,8.11,8.11,0,0,1,.42,2.77v14.13Z" style="fill:#5b89b4"/><path d="M275.47,180.64c0-.89,0-1.6.07-2.12a11.09,11.09,0,0,1-1.38,1,13.35,13.35,0,0,1-2.59,1.11,11.66,11.66,0,0,1-3.52.48,11.94,11.94,0,0,1-4.84-.91,10,10,0,0,1-3.46-2.4,10.18,10.18,0,0,1-2.08-3.42,11.52,11.52,0,0,1-.71-4,11.35,11.35,0,0,1,.78-4.22,10,10,0,0,1,5.68-5.67,12.34,12.34,0,0,1,4.56-.81,13.3,13.3,0,0,1,3.92.59,11.58,11.58,0,0,1,3.57,1.81V153.2h2.47v27.44Zm0-15.54A10.11,10.11,0,0,0,268,162a9.54,9.54,0,0,0-3.67.66,7.71,7.71,0,0,0-2.7,1.8,7.62,7.62,0,0,0-1.68,2.66,9.45,9.45,0,0,0-.56,3.25,9.18,9.18,0,0,0,.56,3.18,7.85,7.85,0,0,0,1.66,2.67,8.18,8.18,0,0,0,2.7,1.84,10.69,10.69,0,0,0,6.54.31,9.77,9.77,0,0,0,2.14-.9,7,7,0,0,0,.84-.53c.26-.18.51-.37.74-.56l.48-.41c.15-.13.29-.25.41-.37Z" style="fill:#5b89b4"/><path d="M120,201.65l-5.66-5.51h-4.15v5.51h-1.27V188.11h4.67a9.78,9.78,0,0,1,5.06,1,3.24,3.24,0,0,1,1.63,2.91,3.3,3.3,0,0,1-.33,1.47,4.18,4.18,0,0,1-.92,1.18,4.9,4.9,0,0,1-1.37.86A6.6,6.6,0,0,1,116,196l5.81,5.62Zm-1.17-10.56a1.86,1.86,0,0,0-.78-.87,5.2,5.2,0,0,0-1.68-.65,14.13,14.13,0,0,0-2.92-.25h-3.26v5.62h4.46a6.48,6.48,0,0,0,1.92-.25,4.73,4.73,0,0,0,1.37-.67,2.92,2.92,0,0,0,.81-.93A2.28,2.28,0,0,0,119,192a2.51,2.51,0,0,0-.19-.95" style="fill:#003e52"/><path d="M123.06,196.84a4.27,4.27,0,0,0,.49,1.81,3.75,3.75,0,0,0,1,1.19,3.88,3.88,0,0,0,1.34.65,5.46,5.46,0,0,0,1.42.2,9.47,9.47,0,0,0,1.56-.13c.54-.09,1-.19,1.54-.31s.9-.22,1.26-.34l.74-.24.09,1.18c-.71.21-1.33.38-1.85.51s-1.09.24-1.69.35a10,10,0,0,1-1.61.16,6.91,6.91,0,0,1-2.15-.35,5,5,0,0,1-1.87-1.13,5.21,5.21,0,0,1-1.13-1.7,6,6,0,0,1-.42-2.35,5.3,5.3,0,0,1,.44-2.22,4.65,4.65,0,0,1,1.24-1.67,5.83,5.83,0,0,1,1.7-1,6,6,0,0,1,2.19-.38,5.34,5.34,0,0,1,2.06.42,5.43,5.43,0,0,1,1.74,1.23,5.61,5.61,0,0,1,1,1.67,6.62,6.62,0,0,1,.4,2.47Zm8.22-1.13a4.2,4.2,0,0,0-.43-1.31,4.1,4.1,0,0,0-.82-1.11,3.88,3.88,0,0,0-1.18-.77,3.74,3.74,0,0,0-1.47-.29,4.68,4.68,0,0,0-1.67.28,4.08,4.08,0,0,0-1.32.76,3.76,3.76,0,0,0-.9,1.1,3.33,3.33,0,0,0-.41,1.32h8.2Z" style="fill:#003e52"/><path d="M143.85,199.91a3.36,3.36,0,0,1-1,1,5,5,0,0,1-1.6.72,8.53,8.53,0,0,1-2.13.25,10,10,0,0,1-1.71-.14,11.21,11.21,0,0,1-1.46-.34,4.27,4.27,0,0,1-1.2-.55,10.69,10.69,0,0,1-1.18-.93l.91-.9a4.92,4.92,0,0,0,1.81,1.21,7.53,7.53,0,0,0,2.76.45,7.86,7.86,0,0,0,1.68-.18,4.46,4.46,0,0,0,1.41-.55,1.56,1.56,0,0,0,.78-1.3,1.64,1.64,0,0,0-.11-.56,1.24,1.24,0,0,0-.37-.51,2.5,2.5,0,0,0-.41-.29,3,3,0,0,0-.62-.23c-.27-.07-.59-.14-1-.21s-.88-.16-1.48-.25-1.06-.16-1.46-.24-.75-.14-1-.21a3.46,3.46,0,0,1-.75-.25,2.65,2.65,0,0,1-.6-.36,2.14,2.14,0,0,1-1-1.82,2,2,0,0,1,.39-1.25,2.85,2.85,0,0,1,1.06-.82,8.38,8.38,0,0,1,3.44-.59,13,13,0,0,1,1.54.1,5.38,5.38,0,0,1,1.47.42,4.56,4.56,0,0,1,.9.52,5.74,5.74,0,0,1,.94,1l-1,.84a3.55,3.55,0,0,0-1.44-1.2,5.77,5.77,0,0,0-2.45-.44,12,12,0,0,0-1.63.11,4,4,0,0,0-1.3.37,1.11,1.11,0,0,0-.73,1,1,1,0,0,0,.09.41,1.1,1.1,0,0,0,.34.4,2.55,2.55,0,0,0,.39.24,4.39,4.39,0,0,0,.58.19c.25.07.57.14,1,.21l1.54.25c.57.09,1.06.18,1.47.26s.77.16,1.09.25a5.33,5.33,0,0,1,.81.3,3.37,3.37,0,0,1,.63.4,2.46,2.46,0,0,1,.68.88,2.51,2.51,0,0,1,.24,1.08,2.45,2.45,0,0,1-.33,1.33" style="fill:#003e52"/><path d="M156.84,198.47a4.84,4.84,0,0,1-1.05,1.72A5.28,5.28,0,0,1,154,201.4a6.58,6.58,0,0,1-2.59.47,6.77,6.77,0,0,1-2.53-.44,5.19,5.19,0,0,1-1.82-1.19,4.86,4.86,0,0,1-1.08-1.73,5.68,5.68,0,0,1-.37-2,5.41,5.41,0,0,1,.46-2.29,5,5,0,0,1,1.24-1.7,5.9,5.9,0,0,1,1.85-1.05,7,7,0,0,1,4.5,0,5.68,5.68,0,0,1,1.84,1.06,5.23,5.23,0,0,1,1.24,1.71,5.54,5.54,0,0,1,.45,2.29,5.92,5.92,0,0,1-.35,2m-.88-2a4.4,4.4,0,0,0-.35-1.77,4,4,0,0,0-1-1.34,4.28,4.28,0,0,0-1.44-.83,5.54,5.54,0,0,0-1.81-.29,5.6,5.6,0,0,0-1.82.29,4.23,4.23,0,0,0-1.45.83,4,4,0,0,0-.95,1.34,4.4,4.4,0,0,0-.35,1.77,4.51,4.51,0,0,0,.28,1.59,3.66,3.66,0,0,0,.84,1.35,3.88,3.88,0,0,0,1.42.94,5.53,5.53,0,0,0,2.05.35,5.37,5.37,0,0,0,2-.35,3.84,3.84,0,0,0,1.41-.94,3.94,3.94,0,0,0,.82-1.34,4.53,4.53,0,0,0,.28-1.6Z" style="fill:#003e52"/><path d="M167,193.34a6.78,6.78,0,0,0-.63-.62,2.39,2.39,0,0,0-.39-.26,2.37,2.37,0,0,0-.53-.16,2.73,2.73,0,0,0-.68-.07,4.85,4.85,0,0,0-.89.1,5.24,5.24,0,0,0-1.06.35,9.52,9.52,0,0,0-1.85,1.19v7.78h-1.25V191.27h1.25l0,1.18a7.86,7.86,0,0,1,.67-.45,6.56,6.56,0,0,1,.7-.36,10.62,10.62,0,0,1,1.16-.42,5,5,0,0,1,1.29-.17,5.1,5.1,0,0,1,.86.08,2.88,2.88,0,0,1,.85.26,3.93,3.93,0,0,1,.6.35c.18.14.43.35.74.64Z" style="fill:#003e52"/><path d="M178.35,201.47a6.85,6.85,0,0,1-2.37.4,9.43,9.43,0,0,1-1.51-.13,4.58,4.58,0,0,1-1.56-.53,3.55,3.55,0,0,1-1.23-1.18,3.7,3.7,0,0,1-.5-2v-5.57h-3v-1.14h3v-2.91h1.23v2.89H179v1.14h-6.62V198a2.65,2.65,0,0,0,.3,1.35,2.3,2.3,0,0,0,.82.82,3.21,3.21,0,0,0,1.15.41,8.42,8.42,0,0,0,1.33.11,5.21,5.21,0,0,0,2-.38c.61-.26,1.18-.52,1.72-.8l.53,1.09a12.91,12.91,0,0,1-1.89.87" style="fill:#003e52"/><path d="M190.76,199.91a3.36,3.36,0,0,1-1,1,5,5,0,0,1-1.6.72,8.53,8.53,0,0,1-2.13.25,10,10,0,0,1-1.71-.14,11.77,11.77,0,0,1-1.47-.34,4.2,4.2,0,0,1-1.19-.55,10.69,10.69,0,0,1-1.18-.93l.91-.9a4.92,4.92,0,0,0,1.81,1.21,7.53,7.53,0,0,0,2.76.45,7.86,7.86,0,0,0,1.68-.18,4.46,4.46,0,0,0,1.41-.55,1.56,1.56,0,0,0,.78-1.3,1.45,1.45,0,0,0-.12-.56,1.22,1.22,0,0,0-.36-.51,2.5,2.5,0,0,0-.41-.29,3.15,3.15,0,0,0-.63-.23c-.26-.07-.59-.14-1-.21s-.88-.16-1.48-.25-1.06-.16-1.46-.24-.75-.14-1-.21a3.55,3.55,0,0,1-.74-.25,2.65,2.65,0,0,1-.6-.36,2.14,2.14,0,0,1-1-1.82,2,2,0,0,1,.39-1.25,2.81,2.81,0,0,1,1.05-.82,8.46,8.46,0,0,1,3.45-.59,13.13,13.13,0,0,1,1.54.1,5.38,5.38,0,0,1,1.47.42,4.22,4.22,0,0,1,.89.52,5.39,5.39,0,0,1,1,1l-1,.84a3.55,3.55,0,0,0-1.44-1.2,5.77,5.77,0,0,0-2.45-.44,12.31,12.31,0,0,0-1.64.11,4,4,0,0,0-1.29.37,1.11,1.11,0,0,0-.73,1,1,1,0,0,0,.09.41,1.1,1.1,0,0,0,.34.4,2.55,2.55,0,0,0,.39.24,3.94,3.94,0,0,0,.58.19c.24.07.57.14,1,.21l1.55.25c.57.09,1.06.18,1.47.26s.77.16,1.09.25a5.33,5.33,0,0,1,.81.3,3.29,3.29,0,0,1,.62.4,2.37,2.37,0,0,1,.69.88,2.51,2.51,0,0,1,.24,1.08,2.45,2.45,0,0,1-.33,1.33" style="fill:#003e52"/></svg>