<svg id="Capa_1" data-name="Capa 1" xmlns="http://www.w3.org/2000/svg" viewBox="0 0 300 300"><title>LOGO1</title><path d="M63.46,105c-15,0-28.43,11.7-28.43,27.64a27.42,27.42,0,0,0,1.46,9,26,26,0,0,0,5.4,9.13h0a28.61,28.61,0,0,0,21.25,9.14,28.18,28.18,0,0,0,21.28-9.15,26.24,26.24,0,0,0,5.31-9.13,29.55,29.55,0,0,0,1.53-9.52C91.27,116.21,78.26,105,63.46,105Zm17.22,36.6A26.28,26.28,0,0,1,77,150.72h0a15.28,15.28,0,0,1-13.41,7c-6.62,0-11.19-2.75-14.18-7h0a25.1,25.1,0,0,1-3.82-9.13,42.69,42.69,0,0,1-.91-9c0-11.86,5-25.48,18.44-25.48,13.64,0,18.44,13.22,18.44,25.24A44.51,44.51,0,0,1,80.68,141.59Z" style="fill:#27aae2;fill-rule:evenodd"/><path d="M131.4,153.7c-3.25,4.16-8.6,6.17-13.64,6.17a16.06,16.06,0,0,1-15-9.15,18.34,18.34,0,0,1-1.69-7.84c0-.43,0-.87,0-1.29.61-10.54,8.6-18,18.94-18,3,0,10.08,1,10.08,5.38a2.92,2.92,0,0,1-2.55,3c-1.86,0-2.88-1.61-3.42-3.13-.93-2.4-1.54-3-4.41-3-8.37,0-10.92,8.8-10.93,15.85h0a24.41,24.41,0,0,0,1.52,9.12c1.56,3.83,4.51,6.59,9.64,6.59a12.91,12.91,0,0,0,9.76-5.05Z" style="fill:#27aae2;fill-rule:evenodd"/><path d="M215.15,153.7c-.85,1.12-1.62,2.56-3.18,2.56-2.17,0-2.62-3.07-2.7-5.54,0-1,0-1.82,0-2.39V135.11c0-9.21-3.95-11.54-12.55-11.54-4,0-14.25,1.13-14.25,7.05a2.76,2.76,0,0,0,2.94,2.89c1.94,0,2.94-1.76,3.1-3.53.23-4.24,3.41-4.56,7.28-4.56,6.35,0,6.82,3.85,6.82,9.29,0,.88.15,1.93-.62,2.32l-7.67,3.85-1.53.71c-4.22,1.95-9.34,4.46-10.53,9.13a8.34,8.34,0,0,0-.25,2.1c0,4.49,3.94,7.05,8.05,7.05,4.8,0,9.3-2.65,12.94-5.69a7.15,7.15,0,0,0,6.66,5.69c2.86,0,5.73-2.73,7-5.37Zm-12.47-1.6c-2.17,2.16-5.51,4.56-8.52,4.56-3.18,0-5-2.8-5-5.77v-.17c.1-4.26,4.14-7.06,8.16-9.13,1.92-1,3.83-1.81,5.32-2.55Z" style="fill:#27aae2;fill-rule:evenodd"/><path d="M265,157.38V159l-8.45-.32-9,.32v-1.6C253,157,253,155.3,253,150.72v-11.2c0-5.53.23-13.38-7.13-13.38-6,0-9.92,4.89-9.92,10.73v12.42c0,.5,0,1,0,1.44-.06,4.29-.1,6.29,5.44,6.65V159l-8.44-.32-9,.32v-1.6c5.45-.37,5.45-2.08,5.43-6.66v-10.8a77.19,77.19,0,0,0-.39-9.69c-.62-2.89-2.71-2.57-5.19-2.57v-1.6c4-.48,6.9-1.76,10.69-2.49l1.17,7.3a13.16,13.16,0,0,1,12.39-7.3c7.36,0,11.54,3.45,11.54,11.06v14.66c0,.5,0,1,0,1.43C259.49,155,259.5,157,265,157.38Z" style="fill:#27aae2;fill-rule:evenodd"/><path d="M147.59,141.2v.39a21.22,21.22,0,0,0,2.17,9.13c2,3.81,5.25,6.59,10,6.59,4,0,7.44-2.73,9.76-5.94l1.63,1.69a16.36,16.36,0,0,1-13.79,6.81,17.23,17.23,0,0,1-15.62-9.14h0a17.63,17.63,0,0,1-1.88-8.08q0-.52,0-1c.49-9.59,7.68-18,17.41-18,7.59,0,14.79,4.41,14.79,13.07,0,1-1.16.71-1.94.71H147.9Zm.7-6h12.78c1.24,0,3.8.4,3.8-1.6,0-5-2.64-8.17-7.52-8.17-5.81,0-8.13,4.56-9.06,9.77Z" style="fill:#27aae2;fill-rule:evenodd"/><path d="M45.46,179.11h6.25c2.3,0,4.46.78,4.46,3.55a3.58,3.58,0,0,1-3.86,3.81H45.46v-7.36Zm-2.73,9.74h9.93a5.94,5.94,0,0,0,6.25-6.1A4.84,4.84,0,0,0,55,177.63v-.06a4.92,4.92,0,0,0,3-4.77,5.06,5.06,0,0,0-2.42-4.43c-1.23-.77-3.62-.77-5.44-.77H42.73v21.25ZM45.46,170h5.47c2.36,0,4.38.41,4.38,3.36,0,2.23-1.27,3.39-4.38,3.39H45.46V170Z" style="fill:#808184;fill-rule:evenodd"/><path d="M74.36,173.46H71.77l-4.18,12.59h0l-4.35-12.59H60.43l5.9,15.3-1,2.62a2.12,2.12,0,0,1-2,1.4,4.85,4.85,0,0,1-1.43-.36v2.32a4.64,4.64,0,0,0,1.69.27c2.19,0,3.2-1.1,4.32-4.11l6.48-17.44Z" style="fill:#808184"/><polygon points="83.11 188.85 85.84 188.85 85.84 179.12 96.66 179.12 96.66 188.85 99.4 188.85 99.4 167.59 96.66 167.59 96.66 176.73 85.84 176.73 85.84 167.59 83.11 167.59 83.11 188.85 83.11 188.85" style="fill:#808184"/><path d="M110.45,167.74h-1.87c-.55,3.19-3.08,4-5.87,4v2H108v15.12h2.45V167.74Z" style="fill:#808184"/><path d="M114.25,178.49c0,4.64.4,10.72,6.79,10.72s6.79-6.08,6.79-10.72-.4-10.75-6.79-10.75-6.79,6.08-6.79,10.75Zm2.59,0c0-3.13,0-8.48,4.2-8.48s4.2,5.35,4.2,8.48,0,8.51-4.2,8.51-4.2-5.35-4.2-8.51Z" style="fill:#808184;fill-rule:evenodd"/><polygon points="139.28 188.85 142.01 188.85 142.01 179.12 152.84 179.12 152.84 188.85 155.57 188.85 155.57 167.59 152.84 167.59 152.84 176.73 142.01 176.73 142.01 167.59 139.28 167.59 139.28 188.85 139.28 188.85" style="fill:#808184"/><path d="M158.56,181.17c0,4.49,2.51,8,7.23,8s7.22-3.55,7.22-8-2.5-8.07-7.22-8.07-7.23,3.54-7.23,8.07Zm2.59,0c0-3.75,2.08-5.84,4.64-5.84s4.63,2.09,4.63,5.84-2.07,5.8-4.63,5.8-4.64-2.08-4.64-5.8Z" style="fill:#808184;fill-rule:evenodd"/><path d="M178.42,168.85H176v4.61h-2.54v2.23H176v9.79c0,2.83,1,3.37,3.54,3.37h1.87v-2.23h-1.12c-1.53,0-1.85-.21-1.85-1.37v-9.56h3v-2.23h-3v-4.61Z" style="fill:#808184"/><path d="M193.51,184a3.62,3.62,0,0,1-3.86,3c-3.25,0-4.72-2.38-4.64-5.06h11.14c.15-3.72-1.46-8.81-6.73-8.81-4.06,0-7,3.4-7,8,.15,4.7,2.39,8.1,7.14,8.1a6,6,0,0,0,6.36-5.24Zm-8.5-4.29c.18-2.35,1.7-4.35,4.26-4.35a4.35,4.35,0,0,1,4.29,4.35Z" style="fill:#808184;fill-rule:evenodd"/><polygon points="197.96 188.85 200.41 188.85 200.41 167.59 197.96 167.59 197.96 188.85 197.96 188.85" style="fill:#808184"/><path d="M203,184c.14,3.81,3,5.21,6.3,5.21,3,0,6.33-1.2,6.33-4.86,0-3-2.41-3.81-4.86-4.37-2.27-.57-4.87-.87-4.87-2.68,0-1.55,1.7-2,3.17-2s3.28.63,3.45,2.59h2.45c-.2-3.75-2.82-4.82-6.1-4.82-2.59,0-5.56,1.28-5.56,4.38,0,2.94,2.45,3.78,4.87,4.34s4.86.9,4.86,2.86-2.07,2.29-3.59,2.29c-2,0-3.92-.71-4-3Z" style="fill:#808184"/></svg>