<svg id="Capa_1" data-name="Capa 1" xmlns="http://www.w3.org/2000/svg" viewBox="0 0 300 300"><title>LOGO1</title><path d="M46.6,192.19a6.7,6.7,0,0,1-3,1l4.71,7.85h-2l-4.69-7.85H33.52v7.85H31.77V182.47H42.71a5.84,5.84,0,0,1,3.51.75,5.55,5.55,0,0,1,2.44,4.61A5.64,5.64,0,0,1,46.6,192.19Zm-1.17-7.43c-.65-.4-1.33-.56-3.47-.56H33.52v7.32H42c2,0,2.84-.13,3.59-.68A3.84,3.84,0,0,0,47,187.76,3.35,3.35,0,0,0,45.43,184.76Z" style="fill:#00aa9c"/><path d="M66.66,201.06V182.5H82v1.74H68.33v6.38h7.45v1.69H68.33v7.05H82.58v1.7Z" style="fill:#00aa9c"/><path d="M107.46,201.48a13.88,13.88,0,0,1-4.74-.8,10.94,10.94,0,0,1-4.38-3l1.17-1.22a10.15,10.15,0,0,0,8.09,3.31c2.5,0,7.13-.65,7.13-4,0-2.41-2.47-3.38-4.18-3.54-1-.1-3.49-.07-4.91-.1-2.82-.05-6-1.17-6-4.48,0-2.79,2.33-4.43,4.78-5.1a12.67,12.67,0,0,1,3.51-.45,11.66,11.66,0,0,1,7.4,2.66l-1,1.27c-2.27-1.44-3.88-2.27-6.65-2.27a10.22,10.22,0,0,0-2.39.25c-1.74.41-3.91,1.55-3.91,3.62,0,2.28,2.44,2.76,4.26,2.81,1.47.05,3.68.05,5,.15,3.12.25,5.76,2,5.76,5.16C116.45,200.28,111,201.48,107.46,201.48Z" style="fill:#00aa9c"/><path d="M142.32,201.46c-5.56,0-10.07-4.07-10.07-9.71a9.7,9.7,0,0,1,9.94-9.65c5.52,0,10.06,4,10.06,9.69A9.66,9.66,0,0,1,142.32,201.46Zm0-17.69a8.08,8.08,0,0,0-8.37,7.92,8,8,0,0,0,8.32,8.07c4.56,0,8.32-3.23,8.32-7.92A8.06,8.06,0,0,0,142.29,183.77Z" style="fill:#00aa9c"/><path d="M184.58,192.19a6.7,6.7,0,0,1-3,1l4.71,7.85h-2l-4.68-7.85h-8.1v7.85h-1.74V182.47h10.93a5.84,5.84,0,0,1,3.51.75,5.56,5.56,0,0,1,2.45,4.61A5.65,5.65,0,0,1,184.58,192.19Zm-1.17-7.43c-.65-.4-1.32-.56-3.47-.56H171.5v7.32h8.44c2,0,2.84-.13,3.59-.68a3.84,3.84,0,0,0,1.42-3.08A3.35,3.35,0,0,0,183.41,184.76Z" style="fill:#00aa9c"/><path d="M211.67,184.17v16.89H210V184.17h-7.12v-1.7h15.84v1.7Z" style="fill:#00aa9c"/><path d="M243.12,201.48a13.93,13.93,0,0,1-4.74-.8,11.08,11.08,0,0,1-4.38-3l1.17-1.22a10.18,10.18,0,0,0,8.09,3.31c2.5,0,7.13-.65,7.13-4,0-2.41-2.47-3.38-4.18-3.54-1-.1-3.49-.07-4.91-.1-2.82-.05-6-1.17-6-4.48,0-2.79,2.34-4.43,4.78-5.1a12.72,12.72,0,0,1,3.51-.45,11.66,11.66,0,0,1,7.4,2.66L250,186c-2.26-1.44-3.88-2.27-6.65-2.27A10.28,10.28,0,0,0,241,184c-1.74.41-3.91,1.55-3.91,3.62,0,2.28,2.44,2.76,4.26,2.81,1.47.05,3.68.05,5.06.15,3.11.25,5.75,2,5.75,5.16C252.11,200.28,246.71,201.48,243.12,201.48Z" style="fill:#00aa9c"/><polygon points="124.64 98.52 129.37 111.85 133.58 104.91 124.64 98.52" style="fill:#00aa9c"/><path d="M129.09,111l1.36,3.9c3.74-.18,7.54-.28,11.41-.28s8,.1,11.86.29l1.22-3.89c-4.26-.27-8.63-.42-13.08-.42s-8.61.14-12.77.4M73.82,125.77c14.28-5.5,32.83-9.42,53.52-10.7L126,111.24c-22.09,1.75-40.81,7.12-52.18,14.53M158,111.25l-1.19,3.84c20.65,1.3,39.07,5.21,53.28,10.68-11.21-7.4-29.94-12.75-52.09-14.52" style="fill:#00aa9c"/><polygon points="159.31 98.56 154.57 112.1 150.35 104.95 159.31 98.56" style="fill:#00aa9c"/><rect x="140.04" y="99.31" width="3.73" height="3.73" transform="translate(-29.94 130.19) rotate(-45.07)" style="fill:#00aa9c"/><rect x="136.34" y="103.07" width="3.73" height="3.73" transform="translate(-33.71 128.55) rotate(-45.03)" style="fill:#00aa9c"/><rect x="143.85" y="103.07" width="3.73" height="3.73" transform="translate(-31.5 133.86) rotate(-45.03)" style="fill:#00aa9c"/><path d="M50.57,156.42H36.78v13.49H32.15V138.16H50.57c5.62,0,9.28,3.36,9.28,9.06S56.15,156.42,50.57,156.42Zm0-13.62H36.78v8.93H50.57c3,0,4.68-1.45,4.68-4.51S53.64,142.8,50.57,142.8Z" style="fill:#00aa9c"/><path d="M94.48,169.91l-4.55-10.47H75.67L71,169.91h-5l14.43-31.84h5.11l14.21,31.84ZM82.82,143.69l-5,11.07h10Z" style="fill:#00aa9c"/><path d="M109.82,169.91v-32h4.64v27.37h19.32v4.64Z" style="fill:#00aa9c"/><path d="M171.42,169.91l-4.56-10.47H152.61l-4.73,10.47h-5l14.43-31.84h5.1l14.22,31.84Zm-11.66-26.22-5,11.07h10.05Z" style="fill:#00aa9c"/><path d="M200.81,170.67c-9.79,0-17.87-6.55-17.87-16.72,0-9.62,7.45-16.56,16.93-16.56a21.92,21.92,0,0,1,15.33,6.51l-3.45,2.94c-3.4-2.85-7.06-4.81-11.62-4.81-7,0-12.64,4.81-12.64,12,0,7.7,6.47,12,13.62,12,5,0,8.09-1.66,11.54-5.11l3.07,3.32C211.88,168.72,206.64,170.67,200.81,170.67Z" style="fill:#00aa9c"/><path d="M224.8,169.91v-31.8h26.13v4.69H229.44v8.3h10.81v4.59H229.44v9.58h22.3v4.64Z" style="fill:#00aa9c"/><path d="M263.19,181.47a5,5,0,1,1-5,5A5,5,0,0,1,263.19,181.47Zm0,9.34a4.31,4.31,0,1,0-4.3-4.3A4.29,4.29,0,0,0,263.19,190.81Zm-1.09-1.42h-.73v-5.81h2.23c1.31,0,1.82.57,1.82,1.61a1.56,1.56,0,0,1-1.46,1.65l1.73,2.55h-.82l-1.73-2.55h-1Zm0-3.19H263c.8,0,1.66,0,1.66-1,0-.74-.67-1-1.29-1h-1.3Z" style="fill:#00aa9c"/></svg>