<svg id="Capa_1" data-name="Capa 1" xmlns="http://www.w3.org/2000/svg" viewBox="0 0 300 300"><title>LOGO1</title><path d="M31.89,135.92a14.46,14.46,0,0,0,3-.32,8,8,0,0,0,2.8-1.18,6.37,6.37,0,0,0,2.07-2.36A9.65,9.65,0,0,0,40,125,4.64,4.64,0,0,0,38.42,123,6,6,0,0,0,36,122.1a18.51,18.51,0,0,0-3.23-.25H28.62v13.7a14,14,0,0,0,3.27.37m-7.17-9.81c-.08-2-.16-3.94-.26-6l2.24.16c.76,0,1.5.07,2.24.07.37,0,.81,0,1.34-.05l1.59-.07c.54,0,1.05,0,1.55-.07s.9,0,1.24,0,1,0,1.71,0a14.3,14.3,0,0,1,2.14.28,12.3,12.3,0,0,1,2.24.69,6.49,6.49,0,0,1,2,1.34,6.59,6.59,0,0,1,1.45,2.19,9.83,9.83,0,0,1-.76,8.19,9.46,9.46,0,0,1-3.23,2.95,12.88,12.88,0,0,1-4.06,1.44,23.31,23.31,0,0,1-3.81.36c-.7,0-1.35,0-1.93,0s-1.19,0-1.8-.11V140q0,3,.11,6c.08,2,.16,3.91.26,5.81-.71-.06-1.47-.09-2.27-.09s-1.55,0-2.26.09c.1-1.9.18-3.84.26-5.81s.11-4,.11-6v-7.93q0-3-.11-6" style="fill:#be9814"/><path d="M53,137.49c.8,0,1.63,0,2.49,0s1.69.05,2.49.05l2.58,0c.87,0,1.73,0,2.59-.06L58,125.77Zm20.44,14.34a8.88,8.88,0,0,0-1.22-.09H69.75a8.77,8.77,0,0,0-1.22.09c-.22-.7-.51-1.56-.88-2.56s-.78-2-1.22-3.13-.9-2.2-1.36-3.33-.9-2.19-1.3-3.2l-3-.07c-1,0-2,0-3.05,0s-1.89,0-2.82,0l-2.81.07q-1.47,3.6-2.67,6.85c-.81,2.17-1.4,4-1.8,5.37a16.29,16.29,0,0,0-3.42,0q3.74-8.07,7.29-16.05t7.15-16.24h.88l2.4,5.79,2.63,6.3q1.34,3.18,2.68,6.32c.89,2.09,1.73,4,2.51,5.83s1.49,3.41,2.12,4.83,1.15,2.49,1.55,3.22" style="fill:#be9814"/><path d="M78.61,126.11c-.08-2-.16-3.94-.26-6l1.16.16a8.13,8.13,0,0,0,1.1.07,8.27,8.27,0,0,0,1.11-.07l1.15-.16q-.14,3-.25,6c-.08,2-.11,4-.11,6q0,5.81,0,10.08c0,2.84.06,5.39.1,7.63q3.27,0,6.27-.06a60,60,0,0,0,6.46-.54,5.61,5.61,0,0,0-.23,1.39,4.39,4.39,0,0,0,.23,1.24c-1.42-.06-2.83-.09-4.25-.09H82.62c-1.37,0-2.79,0-4.27.09.1-1.9.18-3.84.26-5.81s.11-4,.11-6v-7.93q0-3-.11-6" style="fill:#be9814"/><path d="M101.68,126.11c-.08-2-.16-3.94-.26-6l1.16.16a8.13,8.13,0,0,0,1.1.07,8.27,8.27,0,0,0,1.11-.07l1.15-.16q-.14,3-.25,6t-.12,6q0,5.81.05,10.08c0,2.84.06,5.39.09,7.63q3.29,0,6.28-.06a60,60,0,0,0,6.46-.54,5.17,5.17,0,0,0-.23,1.39,4.06,4.06,0,0,0,.23,1.24c-1.42-.06-2.83-.09-4.25-.09h-8.51c-1.37,0-2.79,0-4.27.09.1-1.9.18-3.84.26-5.81s.11-4,.11-6v-7.93q0-3-.11-6" style="fill:#be9814"/><path d="M129.89,137.49c.8,0,1.63,0,2.49,0s1.69.05,2.49.05,1.73,0,2.59,0l2.58-.06-5.12-11.72Zm20.44,14.34a8.88,8.88,0,0,0-1.22-.09h-2.45a8.88,8.88,0,0,0-1.22.09c-.22-.7-.51-1.56-.88-2.56s-.77-2-1.22-3.13-.9-2.2-1.36-3.33-.89-2.19-1.29-3.2l-3-.07c-1,0-2,0-3.05,0s-1.89,0-2.81,0l-2.81.07q-1.49,3.6-2.68,6.85t-1.8,5.37a16.2,16.2,0,0,0-3.41,0q3.74-8.07,7.29-16.05t7.15-16.24h.87l2.4,5.79,2.63,6.3c.89,2.12,1.79,4.23,2.68,6.32s1.73,4,2.51,5.83,1.49,3.41,2.13,4.83,1.14,2.49,1.54,3.22" style="fill:#be9814"/><path d="M159.7,149.8a16.36,16.36,0,0,0,2.63.35c1.1.08,2.24.12,3.41.12a22,22,0,0,0,5.07-.6,11.08,11.08,0,0,0,4.55-2.26,12.17,12.17,0,0,0,3.28-4.55,22.58,22.58,0,0,0,.27-14.05,10.06,10.06,0,0,0-2.72-4.08,9.68,9.68,0,0,0-4.13-2.08,22.74,22.74,0,0,0-5.26-.57c-1.38,0-2.67,0-3.87.14s-2.28.19-3.23.32c-.1,1.47-.17,3-.21,4.63s-.07,3.26-.07,4.92V140q0,5,.28,9.78m-4.18-23.69q-.12-2.92-.25-6l3.48.16c1.15,0,2.31.07,3.48.07s2.33,0,3.49-.12,2.31-.11,3.48-.11a20.06,20.06,0,0,1,6.94,1.06,12.16,12.16,0,0,1,4.73,3,11.92,11.92,0,0,1,2.7,4.8,22.1,22.1,0,0,1,.86,6.39,17,17,0,0,1-1.6,7.77,14.74,14.74,0,0,1-4.06,5.1,15.21,15.21,0,0,1-5.44,2.75,21.62,21.62,0,0,1-5.7.8c-1,0-2.08,0-3.09,0s-2,0-3.09,0h-3.09q-1.53,0-3.09.09.14-2.85.25-5.81t.12-6v-7.93q0-3-.12-6" style="fill:#be9814"/><path d="M191.42,126.11c-.08-2-.16-3.94-.26-6l1.16.16a8,8,0,0,0,1.1.07,8.27,8.27,0,0,0,1.11-.07l1.15-.16q-.13,3-.25,6t-.12,6V140q0,3,.12,6t.25,5.81c-.7-.06-1.46-.09-2.26-.09s-1.55,0-2.26.09c.1-1.9.18-3.84.26-5.81s.11-4,.11-6v-7.93q0-3-.11-6" style="fill:#be9814"/><path d="M228.35,125a47.58,47.58,0,0,0-.23-4.89l1,.16a5.7,5.7,0,0,0,.92.07,5.21,5.21,0,0,0,1.39-.23c-.1,1.08-.19,2.36-.28,3.85s-.17,3.09-.23,4.8-.13,3.46-.19,5.26-.1,3.55-.13,5.24a16.88,16.88,0,0,1-.95,5.53,11.5,11.5,0,0,1-2.56,4.15,10.61,10.61,0,0,1-4.09,2.59,16.32,16.32,0,0,1-5.55.88q-6.93,0-10.06-3.14t-3.14-9.92c0-1.45,0-2.73.11-3.86s.12-2.26.12-3.43q0-3.89-.09-6.88c-.06-2-.13-3.69-.19-5.07.37.06.77.11,1.2.16a10.37,10.37,0,0,0,1.2.07,6.41,6.41,0,0,0,1-.07l1-.16c-.06.67-.13,1.56-.19,2.65s-.12,2.33-.18,3.71-.11,2.88-.14,4.48-.05,3.26-.05,5c0,1,0,2.13.05,3.26a23.22,23.22,0,0,0,.32,3.27,14.3,14.3,0,0,0,.9,3,7.64,7.64,0,0,0,1.78,2.54,8.18,8.18,0,0,0,2.9,1.7,13,13,0,0,0,4.34.62,10.94,10.94,0,0,0,4.27-.73,8.31,8.31,0,0,0,2.84-1.94,8.88,8.88,0,0,0,1.73-2.77,16.48,16.48,0,0,0,.9-3.27,26.36,26.36,0,0,0,.32-3.42c0-1.14.05-2.18.05-3.14q0-6.54-.05-10.1" style="fill:#be9814"/><path d="M249.64,132.27q3.26,6.18,6.81,12.69c.31-.58.75-1.42,1.34-2.51s1.26-2.35,2-3.76,1.59-2.95,2.47-4.6,1.76-3.31,2.67-5l2.7-5,2.49-4.56h.6c.34,2.95.65,5.8.95,8.56s.59,5.46.9,8.12.61,5.29.92,7.89.65,5.17,1,7.72a6.87,6.87,0,0,0-1.09-.09h-2.17a6.74,6.74,0,0,0-1.08.09q-.51-6.14-1-11.9c-.34-3.84-.75-7.77-1.24-11.76h-.1c-2.12,3.87-4.2,7.73-6.25,11.55s-4,7.84-5.83,12h-.42q-2.76-5.81-5.79-11.65t-6.07-11.92h-.09q-.31,2.85-.71,6.2T242,141q-.33,3.25-.55,6.13c-.16,1.93-.23,3.51-.23,4.73a13.63,13.63,0,0,0-1.62-.09,13.34,13.34,0,0,0-1.61.09q.6-3.74,1.24-7.88t1.25-8.36q.6-4.18,1.11-8.28c.33-2.72.63-5.31.87-7.77h.79q3.18,6.55,6.43,12.73" style="fill:#be9814"/><rect x="19.07" y="159.76" width="261.87" height="0.62" style="fill:#be9814"/><path d="M32.21,170.86c0-.72-.06-1.44-.1-2.18l.42.06.41,0,.4,0,.42-.06c0,.74-.06,1.46-.09,2.18s0,1.44,0,2.18v2.89c0,.74,0,1.47,0,2.19s.06,1.43.09,2.12c-.25,0-.53,0-.82,0s-.57,0-.83,0c0-.69.07-1.4.1-2.12s0-1.45,0-2.19v-1.51l-1.76,0H27l-1.76,0v1.51c0,.74,0,1.47,0,2.19s.06,1.43.1,2.12c-.26,0-.54,0-.83,0s-.56,0-.82,0c0-.69.06-1.4.09-2.12s0-1.45,0-2.19V173c0-.74,0-1.47,0-2.18s-.06-1.44-.09-2.18l.42.06.4,0,.41,0,.42-.06c0,.74-.07,1.46-.1,2.18s0,1.44,0,2.18v.59l1.76,0,1.76,0,1.76,0,1.76,0V173c0-.74,0-1.47,0-2.18" style="fill:#be9814"/><path d="M60.5,172.07a4.62,4.62,0,0,0-1-1.68,3.79,3.79,0,0,0-1.48-1,5.27,5.27,0,0,0-1.84-.32,5.21,5.21,0,0,0-1.83.32,3.79,3.79,0,0,0-1.48,1,4.62,4.62,0,0,0-1,1.68,8.51,8.51,0,0,0,0,4.83,4.62,4.62,0,0,0,1,1.68,3.79,3.79,0,0,0,1.48,1,5.21,5.21,0,0,0,1.83.32,5.27,5.27,0,0,0,1.84-.32,3.79,3.79,0,0,0,1.48-1,4.62,4.62,0,0,0,1-1.68,8.51,8.51,0,0,0,0-4.83m-10.15-.13a5.45,5.45,0,0,1,1.3-1.9,5.6,5.6,0,0,1,2-1.18,8.36,8.36,0,0,1,5.11,0,5.6,5.6,0,0,1,2,1.18,5.32,5.32,0,0,1,1.3,1.9,6.74,6.74,0,0,1,.46,2.55A6.82,6.82,0,0,1,62,177a5.37,5.37,0,0,1-1.3,1.89,5.26,5.26,0,0,1-2,1.15,8.78,8.78,0,0,1-5.11,0,5.26,5.26,0,0,1-2-1.15,5.5,5.5,0,0,1-1.3-1.89,6.82,6.82,0,0,1-.46-2.55,6.74,6.74,0,0,1,.46-2.55" style="fill:#be9814"/><path d="M80.43,169.55h-.92l-1,0-.93.05c-.29,0-.56,0-.79.09a2.28,2.28,0,0,0,.08-.54,2.64,2.64,0,0,0-.08-.52l2.17.06,2.17,0,2.17,0,2.17-.06a2.6,2.6,0,0,0-.08.54,2.28,2.28,0,0,0,.08.52c-.23,0-.5-.06-.8-.09l-.92-.05-1,0h-.92c0,1.16,0,2.32,0,3.49v2.89c0,.74,0,1.47,0,2.19s.06,1.43.09,2.12c-.25,0-.53,0-.82,0s-.57,0-.83,0c0-.69.07-1.4.1-2.12s0-1.45,0-2.19V173c0-1.17,0-2.33,0-3.49" style="fill:#be9814"/><path d="M101.36,170.83l-.09-2.15,1.51.06,1.5,0,1.5,0,1.5-.06a2.83,2.83,0,0,0,0,.5,2.94,2.94,0,0,0,0,.51l-1-.07-1-.07-1.08-.06-1.42,0c0,.36,0,.7,0,1s0,.7,0,1.12v1.28c0,.41,0,.73,0,.94l1.33,0,1.08,0,.9-.05.78-.06a2.68,2.68,0,0,0,0,1c-.29,0-.63-.06-1-.09l-1.17,0H102.8c0,.1,0,.21,0,.32v3.7c0,.41,0,.73,0,.94H104l1.25,0,1.16-.07a6.83,6.83,0,0,0,1-.13,2,2,0,0,0,0,.26c0,.1,0,.19,0,.27a1.69,1.69,0,0,0,0,.43q-.75,0-1.5,0H102.8c-.5,0-1,0-1.53,0l.09-2.14c0-.72,0-1.44,0-2.18V173c0-.74,0-1.47,0-2.19" style="fill:#be9814"/><path d="M123.69,170.86c0-.72-.06-1.44-.1-2.18l.42.06.41,0,.4,0,.42-.06c0,.74-.06,1.46-.09,2.18s0,1.44,0,2.18c0,1.41,0,2.64,0,3.68s0,2,0,2.78l2.29,0a23.06,23.06,0,0,0,2.35-.2,2.2,2.2,0,0,0-.08.51,1.78,1.78,0,0,0,.08.45c-.51,0-1,0-1.54,0h-3.11l-1.56,0c0-.69.07-1.4.1-2.12s0-1.45,0-2.19V173c0-.74,0-1.47,0-2.18" style="fill:#be9814"/><path d="M173.65,170.13a4.47,4.47,0,0,0-.84-.54,5.65,5.65,0,0,0-1-.37,5.19,5.19,0,0,0-1.2-.14,5.86,5.86,0,0,0-2,.32,4.12,4.12,0,0,0-1.56,1,4.59,4.59,0,0,0-1,1.68,7.87,7.87,0,0,0,0,4.64,4.42,4.42,0,0,0,1,1.67,4.21,4.21,0,0,0,1.58,1.05,5.63,5.63,0,0,0,2.11.38,6.34,6.34,0,0,0,.74,0,5.9,5.9,0,0,0,.75-.1,4.51,4.51,0,0,0,.68-.17,2.53,2.53,0,0,0,.52-.23c0-.34,0-.68,0-1s0-.68,0-1,0-.79,0-1.18,0-.77-.06-1.13a3.94,3.94,0,0,0,.81.09l.37,0a1.28,1.28,0,0,0,.35-.07c0,.26,0,.67-.05,1.22s0,1.29,0,2.2c0,.22,0,.45,0,.68v.68a6.15,6.15,0,0,1-.88.28,9,9,0,0,1-1.13.24l-1.19.17a8.74,8.74,0,0,1-1.09.07,9.39,9.39,0,0,1-2.7-.36,5.19,5.19,0,0,1-2-1.12,4.88,4.88,0,0,1-1.3-1.89,7,7,0,0,1-.45-2.6,6.46,6.46,0,0,1,.47-2.56A5.19,5.19,0,0,1,165.8,170a5.84,5.84,0,0,1,2.07-1.18,8.61,8.61,0,0,1,2.71-.4,11.4,11.4,0,0,1,1.52.09,8.16,8.16,0,0,1,1.18.24c.34.11.64.21.9.32s.49.22.69.33a2.67,2.67,0,0,0-.24.6,3.31,3.31,0,0,0-.15.69h-.2a4.57,4.57,0,0,0-.63-.6" style="fill:#be9814"/><path d="M193.53,174.06a5.92,5.92,0,0,0,.62,0,5.18,5.18,0,0,0,1.08-.12,2.94,2.94,0,0,0,1-.41,2.45,2.45,0,0,0,.78-.79,2.31,2.31,0,0,0,.31-1.26,2.21,2.21,0,0,0-.24-1.08,2,2,0,0,0-.64-.68,2.41,2.41,0,0,0-.84-.35,4.56,4.56,0,0,0-.89-.09c-.39,0-.72,0-1,0l-.66,0c0,.62-.05,1.23-.07,1.84s0,1.21,0,1.82v1a3.76,3.76,0,0,0,.51.06m-1.94-3.2c0-.72-.05-1.44-.09-2.18l1,.06,1,0c.33,0,.65,0,1,0s.63,0,1,0a6.58,6.58,0,0,1,1.35.13,3.29,3.29,0,0,1,1.12.45,2.3,2.3,0,0,1,.76.82,3,3,0,0,1-.09,2.65,3.68,3.68,0,0,1-.88,1,4.42,4.42,0,0,1-1.12.58,5.31,5.31,0,0,1-1.09.28l.56.71.79,1,.91,1.15.9,1.14c.3.37.57.7.83,1s.47.54.62.69a4.07,4.07,0,0,0-.5,0h-1a3.75,3.75,0,0,0-.48,0l-.77-1.06c-.34-.47-.72-1-1.14-1.51s-.83-1.08-1.27-1.61-.82-1-1.18-1.36H193v1.23c0,.74,0,1.47,0,2.19s.06,1.43.09,2.12c-.26,0-.53,0-.82,0s-.57,0-.83,0c0-.69.07-1.4.09-2.12s0-1.45,0-2.19V173c0-.74,0-1.47,0-2.18" style="fill:#be9814"/><path d="M225.49,172.07a4.47,4.47,0,0,0-1-1.68,3.82,3.82,0,0,0-1.49-1,5.42,5.42,0,0,0-3.67,0,3.86,3.86,0,0,0-1.48,1,4.47,4.47,0,0,0-1,1.68,8.28,8.28,0,0,0,0,4.83,4.47,4.47,0,0,0,1,1.68,3.86,3.86,0,0,0,1.48,1,5.42,5.42,0,0,0,3.67,0,3.82,3.82,0,0,0,1.49-1,4.47,4.47,0,0,0,1-1.68,8.51,8.51,0,0,0,0-4.83m-10.14-.13a5.42,5.42,0,0,1,1.29-1.9,5.55,5.55,0,0,1,2-1.18,7.65,7.65,0,0,1,2.54-.4,7.72,7.72,0,0,1,2.56.4,5.51,5.51,0,0,1,2,1.18,5.32,5.32,0,0,1,1.3,1.9,6.55,6.55,0,0,1,.46,2.55A6.62,6.62,0,0,1,227,177a5.37,5.37,0,0,1-1.3,1.89,5.18,5.18,0,0,1-2,1.15,8,8,0,0,1-2.56.38,7.92,7.92,0,0,1-2.54-.38,5.22,5.22,0,0,1-2-1.15,5.48,5.48,0,0,1-1.29-1.89,6.62,6.62,0,0,1-.46-2.55,6.55,6.55,0,0,1,.46-2.55" style="fill:#be9814"/><path d="M252.51,170.46a15,15,0,0,0-.09-1.78l.36.06.34,0a2.05,2.05,0,0,0,.5-.08c0,.39-.07.86-.1,1.4s-.06,1.13-.08,1.76-.05,1.26-.07,1.91,0,1.3-.05,1.91a6,6,0,0,1-.35,2,4.23,4.23,0,0,1-.93,1.52,3.87,3.87,0,0,1-1.49.94,6,6,0,0,1-2,.32,5,5,0,0,1-3.67-1.14,5,5,0,0,1-1.14-3.62c0-.53,0-1,0-1.41s0-.83,0-1.25c0-.95,0-1.78,0-2.51s0-1.35-.07-1.85l.44.06.43,0,.37,0,.36-.06c0,.25,0,.57-.07,1s0,.85-.07,1.35,0,1.05-.05,1.63,0,1.19,0,1.82c0,.38,0,.78,0,1.19a7.61,7.61,0,0,0,.12,1.19,5.35,5.35,0,0,0,.33,1.12,2.7,2.7,0,0,0,.65.92,3,3,0,0,0,1.06.62,4.51,4.51,0,0,0,1.58.23,4,4,0,0,0,1.56-.27,3,3,0,0,0,1-.7,3.23,3.23,0,0,0,.63-1,5.24,5.24,0,0,0,.33-1.19,8.81,8.81,0,0,0,.12-1.25c0-.41,0-.79,0-1.14,0-1.59,0-2.82,0-3.69" style="fill:#be9814"/><path d="M273.33,174.44a5.1,5.1,0,0,0,1.08-.12,2.88,2.88,0,0,0,1-.43,2.36,2.36,0,0,0,.76-.86,3,3,0,0,0,.29-1.41,3,3,0,0,0-.2-1.17,1.62,1.62,0,0,0-.57-.71,2.26,2.26,0,0,0-.88-.35,7,7,0,0,0-1.18-.09h-1.51v5a5.17,5.17,0,0,0,1.19.14m-2.61-3.58c0-.72-.06-1.44-.1-2.18l.82.06.81,0h.49a5.63,5.63,0,0,1,.58,0c.2,0,.39,0,.57,0H275a6.07,6.07,0,0,1,.78.11,4,4,0,0,1,.81.25,2.35,2.35,0,0,1,.74.48,2.66,2.66,0,0,1,.53.8,3.22,3.22,0,0,1,.2,1.19,3.09,3.09,0,0,1-.48,1.8,3.47,3.47,0,0,1-1.18,1.08,4.58,4.58,0,0,1-1.48.52,8.27,8.27,0,0,1-1.39.14h-.71l-.65,0v.92c0,.74,0,1.47,0,2.19s.06,1.43.09,2.12c-.26,0-.53,0-.82,0s-.57,0-.83,0c0-.69.07-1.4.1-2.12s0-1.45,0-2.19V173c0-.74,0-1.47,0-2.18" style="fill:#be9814"/></svg>