<svg id="Capa_1" data-name="Capa 1" xmlns="http://www.w3.org/2000/svg" xmlns:xlink="http://www.w3.org/1999/xlink" viewBox="0 0 300 300"><defs><clipPath id="clip-path"><rect x="38.43" y="108.97" width="223.14" height="82.06" style="fill:none"/></clipPath></defs><title>LOGO1</title><g style="clip-path:url(#clip-path)"><path d="M192.56,187.58h-.72c-1,0-1.57-.5-1.57-1.42V175.8H192c1.45,0,2-.41,2-1.41s-.59-1.41-2-1.41h-1.77v-3.33a2.28,2.28,0,1,0-4.55,0V173H184.6c-1.25,0-1.75.41-1.75,1.41s.5,1.41,1.75,1.41h1.12v11c0,2.94,1.52,4.25,4.94,4.25,1.56,0,3.42-.35,3.42-2a1.34,1.34,0,0,0-1.52-1.45" style="fill:#5d6771"/><path d="M203.81,172.53a9.25,9.25,0,1,0,9.25,9.25,9.26,9.26,0,0,0-9.25-9.25m0,14.32a5.07,5.07,0,1,1,5.07-5.07,5.08,5.08,0,0,1-5.07,5.07" style="fill:#5d6771"/><path d="M238.08,176.82v-2.19a2,2,0,1,0-4.07,0v14.12a2.28,2.28,0,1,0,4.55,0v-5.88c0-4.05,1.05-5.85,3.4-5.85h.9a2.07,2.07,0,0,0,2.24-2.28,2.3,2.3,0,0,0-2.52-2.21c-1.89,0-3.73,1.53-4.5,4.29" style="fill:#5d6771"/><path d="M255.46,180.1l-2.11-.48c-1.48-.33-2.89-.65-2.89-2.05,0-.67.41-1.8,3.16-1.8a4.6,4.6,0,0,1,3.46,1.43,2.5,2.5,0,0,0,1.76.89,1.86,1.86,0,0,0,1.86-2c0-2.15-3.86-3.59-7.47-3.59-3.38,0-7.33,1.41-7.33,5.39,0,3.38,2.42,4.44,5,5.09l3.24.79c1.65.41,2.83.7,2.83,2.11,0,1.23-1.31,2.09-3.19,2.09a5.23,5.23,0,0,1-4.13-1.95c-.64-.65-1.15-1.17-2-1.17a1.7,1.7,0,0,0-1.8,1.86c0,2.33,3.72,4.29,8.13,4.29,3.63,0,7.54-1.81,7.54-5.77,0-3.33-3.26-4.51-6.11-5.16" style="fill:#5d6771"/><path d="M227.48,187.85v.9c0,1.51.69,2.28,2,2.28s2-.77,2-2.28V174.81a2.28,2.28,0,1,0-4.55,0v8.34a4.16,4.16,0,0,1-4.09,4.22c-2.15,0-3.43-1.4-3.43-3.74v-8.82a2.28,2.28,0,0,0-4.56,0v9.82c0,5.78,4.28,6.4,6.12,6.4a8,8,0,0,0,6.44-3.18" style="fill:#5d6771"/><path d="M82.47,129.94c0-3.12,1.45-4.78,4.56-4.78s4.57,1.66,4.57,4.78v1.59h.14c1.66-4.29,5.75-6.37,10.66-6.37,8.44,0,15.84,6.16,15.84,19.24,0,9.69-4.91,18.75-15.57,18.75-4.63,0-8.09-1.87-10-5.12h-.14v13.5c0,3.32-2,5.05-5,5.05s-5-1.73-5-5.05Zm17.64,3.11c-5.88,0-8.09,5.26-8.09,11,0,5.19,1.93,11.28,8.09,11.21,6.44,0,8-6.5,8-11.21,0-6-2.63-10.86-8-11" style="fill:#e52247"/><path d="M131,146.06c0,5.33,3.46,9.2,9.34,9.2,7.61,0,7.61-5,11.7-5a4.18,4.18,0,0,1,4.15,3.95c0,6.08-9.76,8.92-15.85,8.92-14.12,0-19.44-9.55-19.44-18.34,0-11.76,7.12-19.65,19.1-19.65,11.62,0,18.27,8.24,18.27,16.54,0,3.46-1,4.36-4.43,4.36Zm17.72-5.81c-.56-4.64-4-8-8.52-8-5.05,0-8.09,3.11-9.2,8Z" style="fill:#e52247"/><path d="M180,125.16c8.45,0,14.75,4.77,14.75,9.48,0,2.91-2.15,4.36-4.71,4.36-4.78,0-3-5.95-10.31-5.95-3.95,0-8.58,2.7-8.58,11.83,0,6.3,3,10.38,8.51,10.38,7.06,0,5.53-6.5,10.86-6.5a4,4,0,0,1,4.23,3.87c0,4.43-5,10.52-15.37,10.52-12.46,0-18.34-7.68-18.34-18.27,0-11.62,6.58-19.72,19-19.72" style="fill:#e52247"/><path d="M204,109a5.88,5.88,0,1,1-5.88,5.88A5.88,5.88,0,0,1,204,109m-5.05,21.24c0-2.7,1.11-5.05,5.05-5.05s5.05,2.35,5.05,5.05V158.1c0,2.7-1.1,5.05-5.05,5.05s-5.05-2.35-5.05-5.05Z" style="fill:#e52247"/><path d="M247.16,152.5c0,4.22,1,5.19,1,6.78,0,2.28-2.14,3.87-4.56,3.87-4.36,0-5.82-2.77-6-5.88-3.94,4.36-8.51,5.88-13.84,5.88-5.74,0-11.42-3.94-11.42-10.31,0-8.37,6.37-10.72,14.12-11.62l6.16-.7c2.42-.27,4.36-.83,4.36-3.73s-3-4.16-6.37-4.16c-7.47,0-7.68,5.54-11.69,5.54a4,4,0,0,1-4.29-3.88c0-4,5.67-9.13,16.05-9.13,9.69,0,16.41,3.11,16.41,10.38Zm-10.11-7.27c-1.11,1-3.18,1.38-4.36,1.59l-3.67.55c-4.22.63-6.5,1.94-6.5,5,0,2.28,2.14,4.15,5.6,4.15,5.54,0,8.93-3.6,8.93-7.34Z" style="fill:#e52247"/><path d="M251.46,116.58c0-3.32,2-5,5.06-5s5.05,1.73,5.05,5V158.1c0,3.32-2,5.05-5.05,5.05s-5.06-1.73-5.06-5.05Z" style="fill:#e52247"/><path d="M66.68,133.66c10.35,2.35,13,8.49,13,14.29,0,9-6.77,15.68-20.44,15.68-14.37,0-20.79-7.18-20.79-12.57a4.55,4.55,0,0,1,4.77-4.69c6.14,0,4.55,9,16,9,5.87,0,9.11-3.24,9.11-6.56,0-2-1-4.21-4.83-5.18l-12.78-3.24c-10.29-2.63-12.15-8.29-12.15-13.61,0-11,10.22-15.19,19.82-15.19,8.84,0,19.27,5,19.27,11.6,0,2.83-2.42,4.49-5.18,4.49-5.25,0-4.28-7.39-14.85-7.39-5.25,0-8.15,2.42-8.15,5.87s4.14,4.56,7.73,5.39Z" style="fill:#e52247"/></g></svg>