<svg id="Capa_1" data-name="Capa 1" xmlns="http://www.w3.org/2000/svg" viewBox="0 0 300 300"><title>LOGO1</title><path d="M67.1,163.12q-6.66-13-13.53-30.49t-13-38H61.14c.86,3.39,1.9,7.06,3.08,11s2.4,8,3.66,12,2.53,8,3.79,11.79,2.51,7.3,3.73,10.43q1.71-4.7,3.66-10.43t3.86-11.79q1.9-6.06,3.67-12t3.07-11h20.08q-6.13,20.6-13,38.05T83.21,163.12Z" style="fill:#3daa40"/><rect x="113.52" y="94.58" width="19.41" height="68.54" style="fill:#3daa40"/><path d="M161.32,163.12q-6.67-13-13.54-30.49t-13-38h20.59q1.31,5.08,3.07,11t3.67,12q1.89,6.06,3.8,11.79t3.73,10.43q1.69-4.7,3.66-10.43t3.86-11.79q1.89-6.06,3.66-12t3.08-11H204q-6.15,20.6-13,38.05t-13.53,30.49Z" style="fill:#3daa40"/><path d="M231.05,92.76a45.11,45.11,0,0,1,14.34,1.95,22.11,22.11,0,0,1,9.19,5.61,20.62,20.62,0,0,1,4.89,8.86,43.56,43.56,0,0,1,1.43,11.6v40.39q-4.17.92-11.6,2.15a112.07,112.07,0,0,1-18,1.23,56.43,56.43,0,0,1-12-1.17,26.15,26.15,0,0,1-9.32-3.84,17.44,17.44,0,0,1-6-7A24,24,0,0,1,201.88,142a20.11,20.11,0,0,1,2.4-10.17,18.6,18.6,0,0,1,6.46-6.64,29.12,29.12,0,0,1,9.25-3.59,52.43,52.43,0,0,1,10.81-1.1,63.43,63.43,0,0,1,6.71.32,31.3,31.3,0,0,1,4.76.85v-1.82a10.75,10.75,0,0,0-3-8q-3-3-10.42-3a66.14,66.14,0,0,0-9.78.72,42.14,42.14,0,0,0-8.34,2L208.26,96c1.12-.34,2.53-.71,4.23-1.1s3.54-.74,5.54-1,4.1-.56,6.32-.78,4.45-.33,6.7-.33m1.57,56.81c1.91,0,3.74,0,5.48-.13a35,35,0,0,0,4.16-.39V134.33c-.78-.17-1.95-.35-3.51-.52a40.46,40.46,0,0,0-4.31-.27,38.22,38.22,0,0,0-5.15.33,13.53,13.53,0,0,0-4.23,1.24,7.13,7.13,0,0,0-2.86,2.47,6.87,6.87,0,0,0-1,3.91q0,4.56,3.06,6.32a17,17,0,0,0,8.41,1.76" style="fill:#3daa40"/><path d="M131.54,183.45a9.82,9.82,0,0,1,3.69.62,6.43,6.43,0,0,1,2.46,1.71,6.92,6.92,0,0,1,1.37,2.59,11.87,11.87,0,0,1,.42,3.24v13.93a9.28,9.28,0,0,1-1.23.27c-.54.11-1.17.21-1.88.33s-1.5.2-2.37.28-1.76.1-2.67.1a13.07,13.07,0,0,1-3.23-.38,7.15,7.15,0,0,1-2.56-1.22,5.92,5.92,0,0,1-1.71-2.14,7.39,7.39,0,0,1-.61-3.18,6.54,6.54,0,0,1,.68-3.08,5.79,5.79,0,0,1,1.92-2.11,8.85,8.85,0,0,1,3-1.22,17.26,17.26,0,0,1,3.71-.38q.6,0,1.26.06c.44,0,.87.1,1.29.17s.77.14,1.06.21a3.44,3.44,0,0,1,.62.2v-1.37a13.65,13.65,0,0,0-.17-2.24,4.89,4.89,0,0,0-.74-2,4.18,4.18,0,0,0-1.63-1.41,6.15,6.15,0,0,0-2.75-.53,14.18,14.18,0,0,0-3.63.34c-.8.23-1.38.42-1.75.55l-.38-2.43a10.13,10.13,0,0,1,2.24-.64,18.93,18.93,0,0,1,3.64-.3m.25,20.59c1.09,0,2,0,2.84-.11a19.67,19.67,0,0,0,2.07-.27v-7.78a8.94,8.94,0,0,0-1.49-.45,13.77,13.77,0,0,0-2.82-.23,16.11,16.11,0,0,0-2.14.14,6.39,6.39,0,0,0-2.05.65,4,4,0,0,0-1.53,1.34,3.85,3.85,0,0,0-.6,2.26,4.8,4.8,0,0,0,.41,2.09,3.28,3.28,0,0,0,1.15,1.37,5.28,5.28,0,0,0,1.79.75,10.67,10.67,0,0,0,2.37.24" style="fill:#de2a1a"/><path d="M143.11,195a14,14,0,0,1,.84-5.07,11.27,11.27,0,0,1,2.17-3.61,8.67,8.67,0,0,1,3.08-2.16,9.33,9.33,0,0,1,3.56-.7,8.29,8.29,0,0,1,6.47,2.65q2.42,2.64,2.42,8.15c0,.23,0,.46,0,.69s0,.44-.07.64h-15.5a9.71,9.71,0,0,0,2,6.24q1.88,2.18,6,2.17a12.28,12.28,0,0,0,3.59-.42,15.14,15.14,0,0,0,1.92-.73l.51,2.39a10.87,10.87,0,0,1-2.24.81,14.31,14.31,0,0,1-3.86.47,12.85,12.85,0,0,1-5-.85,9,9,0,0,1-3.38-2.39,9.57,9.57,0,0,1-1.92-3.66,17.18,17.18,0,0,1-.59-4.62m15.68-1.75a8.81,8.81,0,0,0-1.62-5.38,5.25,5.25,0,0,0-4.36-1.92,5.79,5.79,0,0,0-2.67.59,6.81,6.81,0,0,0-2,1.61,7.27,7.27,0,0,0-1.37,2.32,9.63,9.63,0,0,0-.58,2.78Z" style="fill:#de2a1a"/><path d="M173.23,183.54a14.25,14.25,0,0,1,2.58.22,8.22,8.22,0,0,1,1.69.42l-.56,2.4a5.87,5.87,0,0,0-1.39-.37,16.81,16.81,0,0,0-2.76-.19,13,13,0,0,0-2.88.26,7.28,7.28,0,0,0-1.43.43v19.35H165.7V185a21.82,21.82,0,0,1,3-1,18.25,18.25,0,0,1,4.58-.5" style="fill:#de2a1a"/><path d="M198.38,195a14.28,14.28,0,0,1-.75,4.74,10.45,10.45,0,0,1-2.09,3.63,9.49,9.49,0,0,1-3.18,2.32,9.6,9.6,0,0,1-4.06.83,9.5,9.5,0,0,1-7.24-3.15,10.77,10.77,0,0,1-2.09-3.63,14.28,14.28,0,0,1-.75-4.74,14.56,14.56,0,0,1,.75-4.75,11,11,0,0,1,2.09-3.65,9.41,9.41,0,0,1,3.18-2.35,10.34,10.34,0,0,1,8.12,0,9.22,9.22,0,0,1,3.18,2.35,10.64,10.64,0,0,1,2.09,3.65,14.34,14.34,0,0,1,.75,4.75m-2.94,0a10.42,10.42,0,0,0-1.92-6.6,6.76,6.76,0,0,0-10.43,0,12.25,12.25,0,0,0,0,13.17,6.79,6.79,0,0,0,10.43,0,10.37,10.37,0,0,0,1.92-6.57" style="fill:#de2a1a"/><path d="M205,185.29a10.1,10.1,0,0,1,2.33-1.17,10.54,10.54,0,0,1,3.78-.62,9.9,9.9,0,0,1,4.25.86,8.62,8.62,0,0,1,3.14,2.39,10.38,10.38,0,0,1,1.94,3.65,15.15,15.15,0,0,1,.67,4.63,13.78,13.78,0,0,1-.8,4.83,10.26,10.26,0,0,1-2.22,3.63,9.52,9.52,0,0,1-3.41,2.28,11.83,11.83,0,0,1-4.42.79,26,26,0,0,1-4.87-.38,26.31,26.31,0,0,1-3.16-.81v-32l2.77-.51v12.38Zm0,18.15a12.69,12.69,0,0,0,1.91.41,22.44,22.44,0,0,0,3.3.19,7.54,7.54,0,0,0,5.77-2.33c1.46-1.55,2.18-3.77,2.18-6.68a15.66,15.66,0,0,0-.38-3.48,8.36,8.36,0,0,0-1.24-2.86,6.16,6.16,0,0,0-2.25-1.94,7.27,7.27,0,0,0-3.44-.73,8.72,8.72,0,0,0-1.87.19,10.92,10.92,0,0,0-1.67.49,8.84,8.84,0,0,0-1.34.64,11.35,11.35,0,0,0-1,.64v15.46Z" style="fill:#de2a1a"/><path d="M242,205.28c-.82.23-1.93.48-3.33.76a25.69,25.69,0,0,1-5.12.43,10.32,10.32,0,0,1-4.15-.73,6.58,6.58,0,0,1-2.69-2,8.47,8.47,0,0,1-1.47-3.21,17.75,17.75,0,0,1-.45-4.14V184h2.78v11.49a19.6,19.6,0,0,0,.34,4,6.42,6.42,0,0,0,1.11,2.63,4.38,4.38,0,0,0,2,1.45,8.71,8.71,0,0,0,3,.44,24.22,24.22,0,0,0,3.41-.21,9.52,9.52,0,0,0,1.84-.38V184H242Z" style="fill:#de2a1a"/><path d="M251.73,204.08a8.68,8.68,0,0,0,4-.79,2.73,2.73,0,0,0,1.55-2.66,3.93,3.93,0,0,0-.27-1.54,3.19,3.19,0,0,0-.92-1.15,7.85,7.85,0,0,0-1.69-1l-2.58-1.11c-.83-.34-1.61-.68-2.35-1a9.86,9.86,0,0,1-2-1.24,5.48,5.48,0,0,1-1.37-1.69,5.15,5.15,0,0,1-.51-2.39,5.37,5.37,0,0,1,2-4.36,8.53,8.53,0,0,1,5.57-1.67,15.48,15.48,0,0,1,3.74.38,12.09,12.09,0,0,1,2.07.69l-.64,2.48a16,16,0,0,0-1.73-.68,11.2,11.2,0,0,0-3.57-.43,7.81,7.81,0,0,0-1.77.19,4.73,4.73,0,0,0-1.47.6,3.17,3.17,0,0,0-1,1,2.79,2.79,0,0,0-.39,1.52,3.33,3.33,0,0,0,.34,1.54,3.27,3.27,0,0,0,1,1.13,7.67,7.67,0,0,0,1.62.92c.64.28,1.37.6,2.2.94s1.67.68,2.45,1a8.78,8.78,0,0,1,2.08,1.28,5.86,5.86,0,0,1,1.45,1.79,5.55,5.55,0,0,1,.56,2.62,5.12,5.12,0,0,1-2.25,4.53,10.73,10.73,0,0,1-6.13,1.54,15.35,15.35,0,0,1-4.44-.49,18,18,0,0,1-2.05-.75l.73-2.52a4.57,4.57,0,0,0,.56.28,10.89,10.89,0,0,0,1.15.43,12.8,12.8,0,0,0,1.73.4,13.65,13.65,0,0,0,2.34.17" style="fill:#de2a1a"/><path d="M63,194.91a12,12,0,1,1-12-12,12,12,0,0,1,12,12" style="fill:#3daa40"/><path d="M57.07,189.85A2.88,2.88,0,1,1,54.2,187a2.86,2.86,0,0,1,2.87,2.87" style="fill:#fff"/><path d="M89.66,194.91a12,12,0,1,1-12-12,12,12,0,0,1,12,12" style="fill:#fff"/><path d="M77.69,207.24A12.34,12.34,0,1,1,90,194.91a12.34,12.34,0,0,1-12.34,12.33m0-23.94a11.6,11.6,0,1,0,11.6,11.6,11.61,11.61,0,0,0-11.6-11.6" style="fill:#afadb0"/><path d="M83.69,189.85A2.87,2.87,0,1,1,80.82,187a2.86,2.86,0,0,1,2.87,2.87" style="fill:#afadb0"/><path d="M116.28,194.91a12,12,0,1,1-12-12,12,12,0,0,1,12,12" style="fill:#de2a1a"/><path d="M110.31,189.85a2.88,2.88,0,1,1-2.87-2.87,2.87,2.87,0,0,1,2.87,2.87" style="fill:#fff"/></svg>