<svg id="Capa_1" data-name="Capa 1" xmlns="http://www.w3.org/2000/svg" viewBox="0 0 1080 1080"><title>LOGO 2</title><path d="M796.73,775.1h-35l17.48-41.53Zm-7.32-69.75H769.62L718.8,822.9H742l11.52-27.62H805l11.27,27.62h23.88Z" style="fill:#0774ba"/><path d="M525.53,802.21H504.68V726.83h20.85v0c23,.06,37.81,15.91,37.81,37.88,0,21.35-14.57,37.48-37.81,37.48m0-96H482.62V822.88h42.91c37.37,0,60.73-25.84,60.73-58.48,0-28.62-20-58.18-60.73-58.18" style="fill:#0774ba"/><polygon points="286.56 752.26 258.93 706.22 232.93 706.22 275.25 774.76 275.25 822.89 297.46 822.89 297.46 774.25 339.96 706.22 314.6 706.22 286.56 752.26" style="fill:#0774ba"/><polygon points="190.64 823.68 224.35 706.22 201.22 706.22 180.03 786.08 155.66 705.87 134.35 705.87 109.58 786.08 88.45 706.22 64.74 706.22 98.85 823.68 118.43 823.68 144.25 740.26 170.55 823.68 190.64 823.68" style="fill:#0774ba"/><polygon points="431.16 782.9 372.86 706.22 352.86 706.22 352.86 763.18 352.86 822.88 374.57 822.88 374.57 743.83 434.65 822.88 452.81 822.88 452.81 764.77 452.81 706.22 431.16 706.22 431.16 782.9" style="fill:#0774ba"/><polygon points="703.15 822.88 703.15 763.18 703.15 706.22 681.18 706.22 681.18 753.71 630.03 753.71 630.03 706.22 607.98 706.22 607.98 761.58 607.98 822.88 630.03 822.88 630.03 774.71 681.18 774.71 681.18 822.88 703.15 822.88" style="fill:#0774ba"/><polygon points="909.78 759.21 876.3 706.22 853.53 706.22 853.53 760.03 853.53 822.88 875.25 822.88 875.25 743.98 908.51 794.78 910.39 794.78 943.98 743.62 943.98 822.88 966.01 822.88 966.01 758.42 966.01 706.22 943.17 706.22 909.78 759.21" style="fill:#0774ba"/><path d="M995.27,718.74c1.54,0,2.34-.84,2.34-2v-.07c0-1.33-.92-2.09-2.37-2.09h-2.92v4.12Zm-6-6.8h6.06a5.84,5.84,0,0,1,4.22,1.51,4.47,4.47,0,0,1,1.11,3v.11a4.4,4.4,0,0,1-2.93,4.28l3.29,5h-3.49l-2.86-4.46h-2.36v4.46h-3Zm16.56,7.33v-.1a11.24,11.24,0,0,0-11.22-11.49,11.37,11.37,0,0,0-11.38,11.59v.05a11.3,11.3,0,1,0,22.6-.05m-24.1.05v-.05a13,13,0,0,1,12.88-13,12.77,12.77,0,0,1,12.68,12.94v.1a12.78,12.78,0,1,1-25.56.05" style="fill:#0774ba"/><path d="M89.35,876l-6-14.33L77.3,876Zm-8.8-21.79h5.7l15.36,35.89H95.16l-3.55-8.6H75.06l-3.56,8.6H65.2Z" style="fill:#0774ba"/><polygon points="119.63 854.4 125.72 854.4 125.72 884.36 144.14 884.36 144.14 890.07 119.63 890.07 119.63 854.4" style="fill:#0774ba"/><polygon points="163.14 854.4 169.3 854.4 169.3 884.36 187.67 884.36 187.67 890.07 163.14 890.07 163.14 854.4" style="fill:#0774ba"/><rect x="203.51" y="871.45" width="14.79" height="6.06" style="fill:#0774ba"/><rect x="239.83" y="854.4" width="6.14" height="35.67" style="fill:#0774ba"/><polygon points="270.31 854.4 276.03 854.4 294.75 879.06 294.75 854.4 300.78 854.4 300.78 890.07 295.61 890.07 276.38 864.69 276.38 890.07 270.31 890.07 270.31 854.4" style="fill:#0774ba"/><path d="M317.23,872.35v-.07c0-10.16,7.39-18.45,18-18.45a17.94,17.94,0,0,1,13.67,5.53L345,864c-2.78-2.62-5.81-4.42-9.74-4.42-6.76,0-11.55,5.6-11.55,12.58v.14c0,7,4.79,12.68,11.55,12.68,4.27,0,7-1.8,10-4.69l4,4.08c-3.65,3.91-7.62,6.35-14.16,6.35-10.25,0-17.78-8.09-17.78-18.35" style="fill:#0774ba"/><polygon points="368.51 854.4 374.67 854.4 374.67 884.36 393 884.36 393 890.07 368.51 890.07 368.51 854.4" style="fill:#0774ba"/><path d="M410.84,875V854.4H417v20.3c0,6.65,3.35,10.17,8.85,10.17s8.78-3.29,8.78-9.89V854.4h6.12v20.28c0,10.59-5.88,16-15,16s-14.92-5.36-14.92-15.65" style="fill:#0774ba"/><path d="M457.84,884.87l3.7-4.45c3.31,2.93,6.7,4.64,11,4.64,3.82,0,6.22-1.78,6.22-4.48v-.14c0-2.54-1.42-3.94-7.92-5.41-7.42-1.85-11.63-4.08-11.63-10.7v-.05c0-6.11,5-10.33,12-10.33a19.28,19.28,0,0,1,12.66,4.4l-3.26,4.78c-3.17-2.37-6.33-3.69-9.54-3.69-3.56,0-5.66,1.92-5.66,4.26v.09c0,2.76,1.57,4,8.26,5.61,7.4,1.88,11.2,4.55,11.2,10.42V880c0,6.65-5.09,10.62-12.43,10.62a21,21,0,0,1-14.58-5.71" style="fill:#0774ba"/><rect x="507.43" y="854.4" width="6.2" height="35.67" style="fill:#0774ba"/><polygon points="531.97 854.4 538.74 854.4 549.26 881.84 559.75 854.4 566.38 854.4 551.85 890.33 546.49 890.33 531.97 854.4" style="fill:#0774ba"/><polygon points="585.35 854.4 611.25 854.4 611.25 860.05 591.55 860.05 591.55 869.31 609.02 869.31 609.02 874.91 591.55 874.91 591.55 884.5 611.52 884.5 611.52 890.07 585.35 890.07 585.35 854.4" style="fill:#0774ba"/><path d="M674.92,872.1c4.4,0,7.19-2.37,7.19-5.94v-.1c0-3.82-2.73-5.92-7.26-5.92h-8.91v12Zm-15.15-17.7h15.58c4.42,0,7.8,1.34,10.08,3.6a10.93,10.93,0,0,1,2.91,7.68v.07c0,5.89-3.45,9.41-8.37,10.85l9.46,13.47H682.2l-8.59-12.43h-7.67v12.43h-6.17Z" style="fill:#0774ba"/><polygon points="709.88 854.4 735.79 854.4 735.79 860.05 716.04 860.05 716.04 869.31 733.51 869.31 733.51 874.91 716.04 874.91 716.04 884.5 735.99 884.5 735.99 890.07 709.88 890.07 709.88 854.4" style="fill:#0774ba"/><path d="M753,884.87l3.66-4.45c3.34,2.93,6.7,4.64,11,4.64,3.84,0,6.25-1.78,6.25-4.48v-.14c0-2.54-1.39-3.94-7.91-5.41-7.41-1.85-11.61-4.08-11.61-10.7v-.05c0-6.11,5-10.33,12-10.33a19.24,19.24,0,0,1,12.65,4.4l-3.3,4.78c-3.14-2.37-6.3-3.69-9.48-3.69-3.58,0-5.7,1.92-5.7,4.26v.09c0,2.76,1.6,4,8.28,5.61C776.2,871.28,780,874,780,879.82V880c0,6.65-5.12,10.62-12.42,10.62A21,21,0,0,1,753,884.87" style="fill:#0774ba"/><path d="M824.81,872.35v-.07c0-6.95-4.9-12.72-11.9-12.72s-11.74,5.67-11.74,12.58v.14c0,6.88,4.92,12.68,11.85,12.68s11.79-5.69,11.79-12.61m-30.11,0v-.07A18.11,18.11,0,0,1,813,853.83a17.92,17.92,0,0,1,18.24,18.31v.14a18.1,18.1,0,0,1-18.35,18.42c-10.71,0-18.21-8.31-18.21-18.35" style="fill:#0774ba"/><path d="M863.81,872.1c4.45,0,7.21-2.37,7.21-5.94v-.1c0-3.82-2.69-5.92-7.24-5.92h-9v12Zm-15.13-17.7h15.6c4.39,0,7.83,1.34,10.06,3.6a10.77,10.77,0,0,1,2.92,7.68v.07c0,5.89-3.47,9.41-8.3,10.85l9.4,13.47H871.1l-8.56-12.43h-7.72v12.43h-6.14Z" style="fill:#0774ba"/><polygon points="906.21 860.24 895.13 860.24 895.13 854.4 923.54 854.4 923.54 860.24 912.44 860.24 912.44 890.08 906.21 890.08 906.21 860.24" style="fill:#0774ba"/><path d="M938.58,884.87l3.76-4.45c3.33,2.93,6.68,4.64,11,4.64,3.77,0,6.17-1.78,6.17-4.48v-.14c0-2.54-1.43-3.94-7.9-5.41C944.23,873.18,940,871,940,864.33v-.05c0-6.11,5-10.33,12-10.33a19,19,0,0,1,12.66,4.4l-3.3,4.78c-3.16-2.37-6.3-3.69-9.52-3.69-3.56,0-5.65,1.92-5.65,4.26v.09c0,2.76,1.58,4,8.31,5.61,7.38,1.88,11.21,4.55,11.21,10.42V880c0,6.65-5.12,10.62-12.51,10.62a21.33,21.33,0,0,1-14.6-5.71" style="fill:#0774ba"/><path d="M728.27,218.43H299.12c-27.29,0-49.38,22.51-49.38,50.33V565.09c0,27.78,22.09,50.3,49.38,50.3H728.27c27.24,0,49.34-22.52,49.34-50.3V268.76c0-27.82-22.1-50.33-49.34-50.33" style="fill:#f08222"/><path d="M728.41,558.27h3.26a5.09,5.09,0,0,0,3.15-.69,2.25,2.25,0,0,0,.85-1.81,2.15,2.15,0,0,0-.41-1.31,2.24,2.24,0,0,0-1.14-.88,8,8,0,0,0-2.66-.29h-3.05Zm-2.65,9.32V551.06h5.67a13.23,13.23,0,0,1,4.21.46,4.06,4.06,0,0,1,2.09,1.57,4.3,4.3,0,0,1,.78,2.44,4.38,4.38,0,0,1-1.31,3.15,5.08,5.08,0,0,1-3.42,1.51,4.86,4.86,0,0,1,1.41.87,18,18,0,0,1,2.43,3.29l2,3.24h-3.29L734.93,565a13.2,13.2,0,0,0-2.81-3.85,3.43,3.43,0,0,0-2.12-.57h-1.59v7Zm6.74-21.32a13.06,13.06,0,0,0-6.31,1.66,11.91,11.91,0,0,0-4.8,4.77,12.75,12.75,0,0,0-1.72,6.39,12.87,12.87,0,0,0,1.71,6.37,11.84,11.84,0,0,0,4.74,4.75,12.82,12.82,0,0,0,12.76,0,11.9,11.9,0,0,0,4.74-4.75,12.93,12.93,0,0,0,1.67-6.37,12.64,12.64,0,0,0-1.72-6.39,11.68,11.68,0,0,0-4.78-4.77,13,13,0,0,0-6.29-1.66m0-2.55a15.55,15.55,0,0,1,7.54,2,14.15,14.15,0,0,1,5.76,5.69,15.34,15.34,0,0,1,0,15.34,14.35,14.35,0,0,1-5.68,5.7,15.54,15.54,0,0,1-15.29,0,14.55,14.55,0,0,1-5.68-5.7,15.44,15.44,0,0,1,0-15.34,14.5,14.5,0,0,1,5.75-5.69,15.75,15.75,0,0,1,7.57-2" style="fill:#fff"/><path d="M482.2,331.22c-.46-.23-.92-.45-1.4-.72a6.62,6.62,0,0,0-3.3-.89,7.61,7.61,0,0,0-6.51,4.06,79.09,79.09,0,0,1-6.71,7.13l-1,1a7,7,0,0,0-.7.94c-.54.8-1.44,2.15-4.88,4.61-4.74,3.37-4.67,6.54-4.25,8.08,0,.13,0,.27,0,.39a6.22,6.22,0,0,1-.43,2.59c-1,1.89-1.23,2.35-1.23,3.86a3.39,3.39,0,0,0,.13.95,37.54,37.54,0,0,1-.94,3.7,5.68,5.68,0,0,0,.74,5.21c2.43,3.21,8.26,3.21,13.41,3.21,6,0,8.27-3.19,9.76-5.32a11.72,11.72,0,0,1,.88-1.15,5,5,0,0,1,1.16-.92c1.39-.9,2.58-1.88,3-4.94a21.51,21.51,0,0,1,2.17-5.53,17.72,17.72,0,0,0,1.63-3.93,13.61,13.61,0,0,1,.83-2.07,33.34,33.34,0,0,0,3-10.21c.83-7-2.78-8.77-5.41-10.07" style="fill:#fff"/><path d="M660.59,426c-1,1-1.82,1.72-2.44,2.37s-1.24,1.36-2.06,2.27c-5.45,4.73-10.72,9.76-12.77,11.73-.85.83-2.51,2.59-4.6,4.81-3,3.19-8.93,9.48-11.33,11.58a18.72,18.72,0,0,1-3.07.33,8.6,8.6,0,0,1-1.7.07c-2.25-.16-4.61-5.42-4.61-5.42a8.9,8.9,0,0,1-1.93-3.54,6.24,6.24,0,0,1-.57-1.71,8,8,0,0,1,1.86-3.17c4.43-4.07,3.15-6.17,7.44-10.36,29.19-28.51,37.7-25.45,37.7-25.45l1.94.34.21-.14a17.85,17.85,0,0,1,2.17,1.4,29.34,29.34,0,0,1,3.58,2.59c.23.9-.71,3.78-9.82,12.3m78.2-13.47a5.79,5.79,0,0,0-4.48-2.05,7.48,7.48,0,0,0-3.14.73l-.13.06-.13.07a21.07,21.07,0,0,0-7.39,7.17l-1.1,1.75c-2.56,4-6.39,10.11-9,15.21-2.17,3.08-9.83,12.77-14.59,15.05l-.16.06-.14.09a10.93,10.93,0,0,1-4.35,1.31,1.54,1.54,0,0,1-.8-.14l-1.14-1.07L691,450.7c-.63-.14-3-.91-3.82-4.47a62.41,62.41,0,0,0-1.81-6.34c-.11-.32-.2-.61-.3-.9-.39-4,1.37-10.14,1.81-11.18.83-1.94,5.51-7.74,8.61-11.59,3.92-4.86,6.18-7.71,7.1-9.56,1.82-3.62,2.19-6.77,1.1-9.38a7.86,7.86,0,0,0-5-4.47,8.8,8.8,0,0,0-2.76-.43,13.28,13.28,0,0,0-5.09,1.2l-.48.18c-.08-.23-.14-.47-.2-.67a13.31,13.31,0,0,0-1.59-3.95c-2.4-4.72-9.1-7.11-20-7.11a30.38,30.38,0,0,0-3.14.13l-.15,0-.16,0c-1,.24-6.45,1.6-10.18,5.24a99.81,99.81,0,0,1-8.26,6.41,63,63,0,0,0-5.75,4.45c-1.64,1.63-5.75,4.21-8.69,6l-.31.19-.27.24c-.25.21-6.23,5.3-8.77,7.8-2.32,2.26-14.87,14.22-19.48,17.89-3.46,2.79-6.65,5.66-9.52,8.41-4.13,5.07-9.89,12-11.07,13.68-2,2.92-4.92,5.18-5.55,2.72-1-3.82.42-3.65,2.43-8.81a10.31,10.31,0,0,1,.9-1.73,28.27,28.27,0,0,1,1.38-3.79c.79-1.51,8.85-13.37,9.53-17.88a40.28,40.28,0,0,0,.27-4.81,28.91,28.91,0,0,1,.14-3c2.16-2.13,3.35-6.19,4.29-10.45a107.45,107.45,0,0,0,2.1-19.24c0-3.66-2.08-9.46-7.64-9.46a9.56,9.56,0,0,0-5.95,2.38c-4,3.15-5.14,4.58-5.89,6.32-2.09,2.52-3.43,7.06-4,10.24-.64,4.17-2,10.56-2.62,11.88s-1.93,4.55-4.47,11.17c-1.37,3.53-3.06,7.92-3.46,8.73l0,.05,0,.06c-.78,1.71-5.32,12.18-6.68,17.39a20.41,20.41,0,0,1-3.63,7.54l0,0,0,0c-.62.71-4.92,5.39-7.77,8.49l-3.4,3.71a2.69,2.69,0,0,1-.39.33c0-.18,0-.4,0-.64-.15-3.3-.26-6.32-.36-9-.23-6.35-.35-9.33-.63-10.93-.08-1-.14-5.84-.2-10.5-.17-14.91-.39-27.6-1.21-32-1.41-7.53-5.31-12-10.42-12a8.83,8.83,0,0,0-4.77,1.46,35.76,35.76,0,0,0-3.11,2.25,16.48,16.48,0,0,1-3.72,2.29l-.31.14-.28.21c-.6.43-5.94,4.47-8.36,13.83-1.91,7.59-2.87,9.74-4.2,12.38-3.18,6.5-8.58,16.61-10.21,18.43a53.28,53.28,0,0,0-3.93,5.5c-2.6,3.9-5.83,8.77-9.26,11.95-3.74,3.39-5.91,3.66-6.48,3.66a1.06,1.06,0,0,1-.92-.4c-1.07-1.28-2.69-7.13-3.46-9.94-1-3.5-1.52-5.41-2.27-6.71-.82-2.33-4.65-14.06-1.92-23,2.4-7.93-3.55-16.48-7.88-20-1.69-1.42-5.77-4.86-11.1-4.86a13.58,13.58,0,0,0-9.21,3.82,58.93,58.93,0,0,0-7.71,8.29c-.41.54-.74.95-1.08,1.34-.86.94-1.64,2.43-5.27,9.62-5,10-13.42,26.61-19.74,34.46a99.19,99.19,0,0,1-21.46,20l-.88.65c-7.68,4.58-12.13,7.27-14.75,8.89,2.16-4,4.86-9,7.39-13.59,8.79-16.14,10.2-18.83,10.6-19.92.22-.52,1.27-2.62,2.29-4.65,3.64-7.31,9.69-19.43,11.64-25.94.85-1.78,4.85-10.11,6.05-12.48l.06-.12.06-.13c2.33-5.38,5.42-11.92,6.38-13.2,2.63-2.89,13.22-21.54,15.15-26.32s9-19.37,10-21.19C438,343.87,448.31,322,451.57,309c1.16-4.76,2.94-9.82,4.66-14.71,2.75-7.86,5.35-15.28,5.71-21.72.31-5.31-.27-8.23-2-10.07a5.42,5.42,0,0,0-4-1.74,7.09,7.09,0,0,0-5,2.42c-.25.15-.69.39-1.06.58a36.78,36.78,0,0,0-11.66,9.12c-1.19,1.46-2.1,2.4-3,3.3-3.14,3.21-5.19,5.6-10.8,17.2-2.78,5.74-4.11,8.29-4.82,9.67a10.7,10.7,0,0,0-1.32,3.31c-.08.43-.23,1.08-.63,2.49-2.48,9-5,16.6-7.34,22.74-2.15,5.63-4.49,13.55-6.21,19.33-.69,2.36-1.3,4.39-1.68,5.52l-1.26,3.88a76.24,76.24,0,0,1-6,11.87c-3,4.59-6.35,10.8-8.36,14.52l-1.11,2.06c-.58,1.07-2.43,4.2-4.23,7.23-3,5-4.81,8.15-5.39,9.32-.16.32-.41.79-.76,1.41a163.38,163.38,0,0,0-10.59,23.48c-1.45,3.53-4.05,9.62-4.92,11.24-.35.65-1.12,1.95-2,3.48-2.65,4.48-6.64,11.23-8.32,15.51-1.21,2.64-3.75,7.38-5.56,9.26a38.32,38.32,0,0,0-7.25,10.3,17.22,17.22,0,0,1-2,3c0-.48,0-1,0-1.47-.06-8.1-.14-17.29.51-23.07.83-7.28,2.79-32.2,2.79-34.65,0-2,.25-8.73.45-10.73a49.51,49.51,0,0,0,1.75-6.09,44,44,0,0,0,1.49-8.5,21.42,21.42,0,0,1,1.62-6.69c1.32-2.44,3.26-12.36,3.26-14.34A117.85,117.85,0,0,1,348.3,365c1.05-2.31,2.72-9.47,2.39-13.38a16.89,16.89,0,0,1,.88-1.9,31,31,0,0,0,3.51-11.22c.87-7.66,2.65-17.09,3-18.43.06-.2.18-.56.34-1A150.09,150.09,0,0,0,363,302c.62-3.13,2.22-9.19,3.75-15,3.23-12.27,4.75-18.33,4.75-21a60,60,0,0,1,.59-7.63c.1-.79.19-1.59.28-2.39l.05-.44,0-.44c-.57-6.72-3.43-10.72-7.65-10.72a7.21,7.21,0,0,0-5,2.23c-1.59,1.14-6.48,4.68-8.59,6.67-1.95,1.33-8.42,6.38-19.82,21.32l-.13.15-.1.17a46.82,46.82,0,0,0-3.81,7.09v0c-.05.12-.21.36-.33.56a30,30,0,0,0-3.83,8.76,85.55,85.55,0,0,0-4.26,11.23c-.31.86-2.87,7.95-4.31,13.52l-.05.19,0,.19c-.09.6-2.42,14.37-2.5,22.29a27.89,27.89,0,0,1-2.23,7.11l-.11.23-.08.23c-.52,1.48-3.16,9-3.16,13.2,0,1.15-.11,2.47-.2,3.87a59.88,59.88,0,0,0-.15,9.44,56.17,56.17,0,0,1-.94,15.92c-.5,2-1,3.37-1.33,4.5a16.7,16.7,0,0,0-1.15,5.69c0,.31,0,.7,0,1.17.06,7.69-.27,10.37-.59,11.26-1.69,3.06-3.33,9.39-3.68,11.9a56.15,56.15,0,0,0-.18,6.51c0,4.58-.07,16.58-.9,19.3-2,3.07-3.16,8.45-4.13,13.82l-.11.64c-.31,1.68-.33,5.3-.35,12.66,0,4.87,0,10.38-.17,15.83-.2,8.62.45,17.22.88,22.93.18,2.44.33,4.55.33,5.53,0,1.16.17,2.57.37,4.38A80.62,80.62,0,0,1,294,547c-.12.49-1.2,4.41-5.24,10.32-3.7,5.42-6.06,14.14-3.17,19.61a8.42,8.42,0,0,0,7.67,4.53,13.64,13.64,0,0,0,4.61-.89c3.05-.74,6.63-1.56,7.74-1.75h.05c2.07,0,6.43-.9,12.19-6.89,4.93-5.14,12.95-16.81,18.56-25.15.34-.53.62-.94.81-1.2,4.43-6.4,9.64-13.7,10.63-14.76,3.23-3.36,3.79-11.58,3.48-14.43a4.35,4.35,0,0,1,1.39-4,43.05,43.05,0,0,0,6.88-9.29,7.93,7.93,0,0,0,3.74,1,6.29,6.29,0,0,0,.88-.06,16.09,16.09,0,0,0,5.44-2.14,17.44,17.44,0,0,0,2.44-.89,47.93,47.93,0,0,0,4.83-2.42h.18c1.45,0,3.62-.21,7.53-1.89l.62-.27c7.37-3.2,13.74-6.13,17-9.48,3.15-2.62,8.25-7,10-9.47,7.76-8.74,17.26-18.87,19.33-20.27l.66-.34.55-.62a33.24,33.24,0,0,1,5.17-4.69c.53,7.35,1.17,16.21,1.21,17.2,0,1.24.46,2.17,1.31,4a78.5,78.5,0,0,1,3.88,9.65c2.21,6.79,7.76,14.39,11.87,14.39a4.17,4.17,0,0,1-.89-.1l.13,0a32.52,32.52,0,0,0,7.42.87A25.39,25.39,0,0,0,480,491.39c1.37-1.06,10.91-8.45,15.55-15.26,1.31-1.89,3.77-5.34,4.76-6.46A138.84,138.84,0,0,0,509.21,459c.15-.11.26-.23.37-.32a.58.58,0,0,0,.13-.14l.07.11,0,.09a42.49,42.49,0,0,1,1.36,11.32c0,7.88.39,22.18,3,29.45,2.39,6.65,10.59,13.81,19.66,13.81a18,18,0,0,0,10.93-3.77,36.15,36.15,0,0,0,11.14-13.21l2.43-2.82a8.49,8.49,0,0,0,3.34.66c2.5,0,5.26-.95,8.41-2.9l.69-1s11.58-13.33,15.08-14.38,2.94,4.32,2,7.37c-1.25,4.19,1.75,9.12,1.75,9.12.31.4,3.74,7.21,14.36,7.21a18.61,18.61,0,0,0,8-1.82l.06,0,.05,0c.54-.27,13.37-6.72,21-15,7.4-8.12,21-17.63,21.08-17.73l.22-.14.19-.17a4.64,4.64,0,0,1,1.35-.78.78.78,0,0,1,.11.18c.56,1.47,3,7.42,7.27,11.43a28.44,28.44,0,0,1,2.27,2.44c2.38,2.77,5.08,5.91,12.1,6.46,1.87.14,3.57.21,5.24.21,11.19,0,19.85-3.15,25.73-9.37,2.61-2.75,4.87-5.1,6.77-7.08,4.92-5.12,6.6-6.9,7.41-8.3.16-.26.76-1.07,1.24-1.72,2.48-3.36,4.79-6.61,5.86-9.25a28.26,28.26,0,0,0,2.19-3.69,32.5,32.5,0,0,0,2.4-8.65c.19-1.39,2.5-6.47,3.48-8.64,1.5-3.3,2-4.3,2-5.47,0-.1,0-.22.06-.35.51-3.29.88-7-1.3-9.54" style="fill:#fff"/></svg>