<svg xmlns="http://www.w3.org/2000/svg" xmlns:xlink="http://www.w3.org/1999/xlink" width="73.238" height="73.222" viewBox="0 0 73.238 73.222">
  <defs>
    <linearGradient id="linear-gradient" x1="0.5" x2="0.5" y2="1" gradientUnits="objectBoundingBox">
      <stop offset="0" stop-color="#de0fa3"/>
      <stop offset="1" stop-color="#08b0df"/>
    </linearGradient>
  </defs>
  <path id="instagram-brands" d="M36.552,49.663A18.773,18.773,0,1,0,55.325,68.436,18.743,18.743,0,0,0,36.552,49.663Zm0,30.978A12.205,12.205,0,1,1,48.757,68.436,12.227,12.227,0,0,1,36.552,80.641Zm23.92-31.746a4.379,4.379,0,1,1-4.379-4.379A4.369,4.369,0,0,1,60.472,48.895Zm12.434,4.444C72.628,47.473,71.288,42.278,66.991,38c-4.281-4.281-9.476-5.621-15.342-5.915-6.045-.343-24.165-.343-30.21,0C15.59,32.36,10.394,33.7,6.1,37.981S.476,47.457.182,53.323c-.343,6.045-.343,24.165,0,30.21C.46,89.4,1.8,94.594,6.1,98.875s9.476,5.621,15.342,5.915c6.045.343,24.165.343,30.21,0,5.866-.278,11.061-1.618,15.342-5.915,4.281-4.281,5.621-9.476,5.915-15.342C73.249,77.488,73.249,59.384,72.906,53.339ZM65.1,90.02a12.357,12.357,0,0,1-6.96,6.96c-4.82,1.912-16.257,1.47-21.583,1.47s-16.78.425-21.583-1.47a12.357,12.357,0,0,1-6.96-6.96C6.1,85.2,6.538,73.762,6.538,68.436s-.425-16.78,1.47-21.583a12.357,12.357,0,0,1,6.96-6.96c4.82-1.912,16.257-1.47,21.583-1.47s16.78-.425,21.583,1.47a12.357,12.357,0,0,1,6.96,6.96c1.912,4.82,1.47,16.257,1.47,21.583S67.008,85.216,65.1,90.02Z" transform="translate(0.075 -31.825)" fill="url(#linear-gradient)"/>
</svg>
