<?xml version="1.0" encoding="utf-8"?>
<!-- Generator: Adobe Illustrator 25.3.1, SVG Export Plug-In . SVG Version: 6.00 Build 0)  -->
<svg version="1.1" id="Capa_1" xmlns="http://www.w3.org/2000/svg" xmlns:xlink="http://www.w3.org/1999/xlink" x="0px" y="0px"
	 viewBox="0 0 1013.24 161.62" style="enable-background:new 0 0 1013.24 161.62;" xml:space="preserve">
<style type="text/css">
	.st0{fill:#0099FF;}
</style>
<path class="st0" d="M145.48,127.63l53.16-59.3h-44.73c-6.5,0-11.76-5.27-11.76-11.76V52.4c0-6.5,5.27-11.76,11.76-11.76h75.39
	c6.5,0,11.76,5.27,11.76,11.76v3.8c0,4.79-1.77,9.41-4.96,12.97l-53.09,59.22h46.74c6.5,0,11.76,5.27,11.76,11.76v4.16
	c0,6.5-5.27,11.76-11.76,11.76h-77.4c-6.5,0-11.76-5.27-11.76-11.76v-3.91C140.59,135.69,142.33,131.14,145.48,127.63z"/>
<path class="st0" d="M892.21,82.62v65.96c0,4.14-3.36,7.5-7.5,7.5h-16.48c-4.14,0-7.5-3.36-7.5-7.5V89.54
	c0-14.29-8.93-24.12-21.88-24.12c-13.62,0-24.12,9.83-24.12,22.33v60.83c0,4.14-3.36,7.5-7.5,7.5h-17.6c-4.14,0-7.5-3.36-7.5-7.5
	V7.5c0-4.14,3.36-7.5,7.5-7.5h17.6c4.14,0,7.5,3.36,7.5,7.5v47.21c7.15-10.05,19.87-16.75,34.61-16.75
	C874.34,37.96,892.21,56.49,892.21,82.62z"/>
<path class="st0" d="M663.02,98.25c0-32.82,29.03-60.29,63.19-60.29c13.5,0,25.26,3.93,34.96,10.63c5.85,4.04,6.2,12.58,0.8,17.21
	l-4.94,4.22c-3.71,3.18-9.11,3.64-13.19,0.95c-5.25-3.47-11.61-5.55-17.86-5.55c-16.97,0-31.26,14.96-31.26,32.6
	c0,18.09,14.29,33.27,31.48,33.27c6.25,0,12.72-2.19,18.11-5.8c4.11-2.76,9.52-2.59,13.3,0.61l5.03,4.25
	c5.43,4.59,5.11,13.08-0.68,17.2c-9.93,7.07-22.01,11.2-35.98,11.2C691.82,158.76,663.02,131.08,663.02,98.25z"/>
<path class="st0" d="M128.28,52.11c-0.02-6.49-5.29-11.73-11.78-11.73h-9.19c-6.5,0-11.76,5.26-11.78,11.76l0,1.52
	C85.43,45.17,72.4,40.05,58.16,40.05C26.04,40.05,0,66.09,0,98.21c0,32.12,26.04,58.16,58.16,58.16c14.42,0,27.61-5.26,37.77-13.95
	l0.01,1.95c0.02,6.49,5.29,11.73,11.78,11.73h9.13c6.52,0,11.8-5.3,11.78-11.82L128.28,52.11z M81.04,122.02
	c-11.14,11.15-28.4,11.16-39.55,0.02c-11.15-11.14-11.16-36.33-0.02-47.49c11.14-11.15,28.4-11.16,39.55-0.02
	C92.17,85.68,92.18,110.87,81.04,122.02z"/>
<path class="st0" d="M372.45,52.11c-0.02-6.49-5.29-11.73-11.78-11.73h-9.19c-6.5,0-11.76,5.26-11.78,11.76l0,1.52
	c-10.11-8.49-23.14-13.61-37.37-13.61c-32.12,0-58.16,26.04-58.16,58.16c0,32.12,26.04,58.16,58.16,58.16
	c14.42,0,27.61-5.26,37.77-13.95l0.01,1.95c0.02,6.49,5.29,11.73,11.78,11.73h9.13c6.52,0,11.8-5.3,11.78-11.82L372.45,52.11z
	 M325.2,122.02c-11.14,11.15-28.4,11.16-39.55,0.02c-11.15-11.14-11.16-36.33-0.02-47.49c11.14-11.15,28.4-11.16,39.55-0.02
	C336.33,85.68,336.34,110.87,325.2,122.02z"/>
<path class="st0" d="M651.68,52.11c-0.02-6.49-5.29-11.73-11.78-11.73h-9.19c-6.5,0-11.76,5.26-11.78,11.76l0,1.52
	c-10.11-8.49-23.14-13.61-37.37-13.61c-32.12,0-58.16,26.04-58.16,58.16c0,32.12,26.04,58.16,58.16,58.16
	c14.42,0,27.61-5.26,37.77-13.95l0.01,1.95c0.02,6.49,5.29,11.73,11.78,11.73h9.13c6.52,0,11.8-5.3,11.78-11.82L651.68,52.11z
	 M604.44,122.02c-11.14,11.15-28.4,11.16-39.55,0.02c-11.15-11.14-11.16-36.33-0.02-47.49c11.14-11.15,28.4-11.16,39.55-0.02
	C615.57,85.68,615.58,110.87,604.44,122.02z"/>
<path class="st0" d="M461.9,37.96c-16.08,0-29.48,6.92-38.63,18.76V9.28c0-5.13-4.16-9.28-9.28-9.28h-14.04
	c-5.13,0-9.28,4.16-9.28,9.28V146.8c0,5.13,4.16,9.28,9.28,9.28h14.04c5.13,0,9.28-4.16,9.28-9.28v-7.02
	c9.16,12.06,22.55,18.98,38.63,18.98c30.81,0,53.14-25.01,53.14-60.51C515.05,62.97,492.72,37.96,461.9,37.96z M473.34,122.09
	c-11.4,11.15-29.06,11.16-40.48,0.02c-11.42-11.14-11.43-36.33-0.02-47.49c11.4-11.15,29.06-11.16,40.48-0.02
	C484.73,85.75,484.74,110.94,473.34,122.09z"/>
<path class="st0" d="M934.57,109.52c1.05,10.58,11.45,21.3,28.02,23.27c8.94,1.06,16-0.7,23.07-3.35c7.4-2.77,15.27-5.8,20.31,1.77
	c5.3,7.95,0.88,18.55-7.95,22.96c-8.13,4.07-19.7,7.29-29.5,7.45c-30.93,0.49-55.37-18.85-61.98-47.66
	c-9.16-39.98,16.13-72.88,54.68-73.49c25.55-0.41,46.67,12.26,50.92,30.8c5.89,25.68-12.3,38.1-44.84,41.27
	C960.12,113.23,944.34,112.89,934.57,109.52z M941.76,80.62c-2.41,3.27-1.84,7.05,2.19,7.55c5.12,0.63,15.03,0.64,22.96-0.22
	c9.7-1.06,16-3.89,14.57-10.15c-1.18-5.14-7.43-8.85-15.05-8.73C955.34,69.25,946.96,73.54,941.76,80.62z"/>
</svg>
